<svg width="24" height="24" viewBox="0 0 24 24" fill="none" xmlns="http://www.w3.org/2000/svg">
<path d="M5.35 5.63999C4.45 4.99999 4.23 3.75999 4.86 2.84999C5.49 1.94999 6.74 1.72999 7.65 2.35999C8.55 2.99999 8.77 4.23999 8.14 5.14999C7.5 6.04999 6.26 6.26999 5.35 5.63999ZM16 20C16 19.45 15.55 19 15 19H8.93C7.45 19 6.19 17.92 5.97 16.46L4.16 7.77999C4.11472 7.55909 3.99435 7.36069 3.81934 7.21849C3.64433 7.0763 3.42549 6.99909 3.2 6.99999C2.58 6.99999 2.12 7.56999 2.24 8.17999L3.99 16.76C4.17369 17.941 4.77355 19.0174 5.68128 19.7949C6.589 20.5725 7.74479 20.9999 8.94 21H15C15.55 21 16 20.55 16 20ZM15.54 15.2H9.35L8.14 9.63999C9.35 10.7241 12.95 12.18 14.42 12.2C15 12.21 15.47 11.71 15.47 11.13C15.47 10.54 14.98 10.09 14.39 10.07C13.08 10.03 11.76 9.50999 10.78 8.73999L9.14 7.46999C8.91 7.28999 8.65 7.16999 8.38 7.08999C8.05887 6.99489 7.72026 6.97437 7.39 7.02999H7.37C6.78138 7.13502 6.25797 7.46805 5.91346 7.95674C5.56894 8.44542 5.43115 9.0503 5.53 9.63999L6.88 15.56C7.01226 16.2458 7.3789 16.8643 7.9171 17.3094C8.4553 17.7546 9.13156 17.9987 9.83 18H16.68L19.77 20.42C20.19 20.75 20.79 20.71 21.16 20.34C21.61 19.89 21.56 19.16 21.06 18.77L16.77 15.42C16.4182 15.147 15.9853 15.1992 15.54 15.2Z" fill="#FEF4D2"/>
</svg>
