<svg width="24" height="24" viewBox="0 0 24 24" fill="none" xmlns="http://www.w3.org/2000/svg">
<path d="M20.941 10.7045C21.4688 10.628 21.9636 10.9942 21.9888 11.5269C22.0778 13.4049 21.6355 15.2772 20.7032 16.9248C19.6118 18.8536 17.9105 20.3652 15.8667 21.2222C13.8229 22.0791 11.5524 22.2328 9.41169 21.6592C7.27102 21.0856 5.38155 19.8171 4.04008 18.0531C2.6986 16.289 1.98114 14.1293 2.00038 11.9132C2.01962 9.69707 2.77448 7.55014 4.14638 5.80963C5.51828 4.06912 7.42949 2.83365 9.5798 2.29729C11.4166 1.83912 13.339 1.91326 15.125 2.50079C15.6315 2.66745 15.8522 3.2421 15.6375 3.73026C15.4228 4.21842 14.854 4.43401 14.3436 4.2791C12.9533 3.85707 11.4685 3.81659 10.0472 4.17112C8.31217 4.6039 6.77006 5.60077 5.66311 7.00515C4.55616 8.40952 3.94708 10.1418 3.93155 11.9299C3.91603 13.7181 4.49493 15.4607 5.57734 16.8841C6.65974 18.3075 8.1843 19.3309 9.91155 19.7938C11.6388 20.2566 13.4709 20.1326 15.12 19.4411C16.7691 18.7497 18.1418 17.53 19.0224 15.9737C19.7438 14.6988 20.1016 13.2572 20.0664 11.8047C20.0535 11.2715 20.4132 10.781 20.941 10.7045Z" fill="url(#paint0_linear_433_25611)"/>
<path d="M19.25 4V8.5M21.5 6.25H17" stroke="url(#paint1_linear_433_25611)" stroke-width="1.5" stroke-linecap="round" stroke-linejoin="round"/>
<path d="M8.16673 11.048H8.13073C8.08673 11.184 8.03473 11.338 7.97473 11.51C7.91873 11.678 7.85873 11.854 7.79473 12.038C7.73473 12.222 7.67673 12.402 7.62073 12.578L7.52473 13.034C7.50073 13.11 7.47673 13.192 7.45273 13.28C7.42873 13.368 7.40273 13.456 7.37473 13.544C7.34673 13.632 7.32073 13.716 7.29673 13.796C7.27673 13.872 7.25673 13.94 7.23673 14C7.19673 14.016 7.15073 14.03 7.09873 14.042C7.04673 14.054 6.98473 14.06 6.91273 14.06C6.76473 14.06 6.65073 14.032 6.57073 13.976C6.49073 13.92 6.45073 13.838 6.45073 13.73C6.45073 13.682 6.45673 13.634 6.46873 13.586C6.48473 13.538 6.50273 13.482 6.52273 13.418C6.55873 13.286 6.60873 13.12 6.67273 12.92C6.74073 12.72 6.81473 12.504 6.89473 12.272C6.97473 12.036 7.05673 11.804 7.14073 11.576C7.22473 11.344 7.30273 11.128 7.37473 10.928C7.45073 10.728 7.51273 10.566 7.56073 10.442C7.61273 10.41 7.69473 10.38 7.80673 10.352C7.91873 10.324 8.02873 10.31 8.13673 10.31C8.29273 10.31 8.43273 10.334 8.55673 10.382C8.68073 10.426 8.76073 10.498 8.79673 10.598C8.87673 10.81 8.96273 11.058 9.05473 11.342C9.14673 11.622 9.24073 11.916 9.33673 12.224C9.43273 12.528 9.52473 12.826 9.61273 13.118C9.70073 13.406 9.77873 13.664 9.84673 13.892C9.80673 13.94 9.74873 13.978 9.67273 14.006C9.59673 14.038 9.50673 14.054 9.40273 14.054C9.25073 14.054 9.14273 14.028 9.07873 13.976C9.01873 13.92 8.97273 13.836 8.94073 13.724L8.71873 12.992L8.62873 12.548C8.57273 12.356 8.51473 12.17 8.45473 11.99C8.39873 11.806 8.34473 11.634 8.29273 11.474C8.24473 11.31 8.20273 11.168 8.16673 11.048ZM7.15873 13.16L7.47073 12.506H8.92873L9.04273 13.16H7.15873ZM13.8095 12.218V13.478C13.8095 13.582 13.7875 13.662 13.7435 13.718C13.7035 13.774 13.6375 13.828 13.5455 13.88C13.4375 13.94 13.2835 13.99 13.0835 14.03C12.8835 14.074 12.6835 14.096 12.4835 14.096C12.1035 14.096 11.7615 14.03 11.4575 13.898C11.1575 13.762 10.9195 13.554 10.7435 13.274C10.5675 12.99 10.4795 12.628 10.4795 12.188C10.4795 11.764 10.5675 11.41 10.7435 11.126C10.9235 10.838 11.1635 10.622 11.4635 10.478C11.7635 10.334 12.0955 10.262 12.4595 10.262C12.7035 10.262 12.9155 10.288 13.0955 10.34C13.2795 10.388 13.4195 10.456 13.5155 10.544C13.6155 10.632 13.6655 10.732 13.6655 10.844C13.6655 10.928 13.6435 11.002 13.5995 11.066C13.5555 11.13 13.5035 11.178 13.4435 11.21C13.3395 11.146 13.2115 11.086 13.0595 11.03C12.9115 10.97 12.7315 10.94 12.5195 10.94C12.2955 10.94 12.0935 10.99 11.9135 11.09C11.7335 11.186 11.5935 11.328 11.4935 11.516C11.3935 11.7 11.3435 11.922 11.3435 12.182C11.3435 12.462 11.3935 12.694 11.4935 12.878C11.5935 13.062 11.7295 13.198 11.9015 13.286C12.0775 13.374 12.2755 13.418 12.4955 13.418C12.6075 13.418 12.7075 13.408 12.7955 13.388C12.8875 13.368 12.9575 13.346 13.0055 13.322V12.548H12.2615C12.2415 12.512 12.2215 12.466 12.2015 12.41C12.1855 12.35 12.1775 12.288 12.1775 12.224C12.1775 12.108 12.2035 12.024 12.2555 11.972C12.3115 11.916 12.3835 11.888 12.4715 11.888H13.4795C13.5795 11.888 13.6595 11.918 13.7195 11.978C13.7795 12.034 13.8095 12.114 13.8095 12.218ZM14.8973 11.522H15.7133V13.958C15.6813 13.966 15.6313 13.978 15.5633 13.994C15.4953 14.006 15.4213 14.012 15.3413 14.012C15.2053 14.012 15.0973 13.972 15.0173 13.892C14.9373 13.808 14.8973 13.698 14.8973 13.562V11.522ZM15.7133 12.836H14.8973V10.808C14.8973 10.668 14.9373 10.558 15.0173 10.478C15.0973 10.398 15.2053 10.358 15.3413 10.358C15.4213 10.358 15.4953 10.364 15.5633 10.376C15.6313 10.388 15.6813 10.4 15.7133 10.412V12.836ZM15.3413 12.476V11.81H17.1533C17.1773 11.846 17.1973 11.892 17.2133 11.948C17.2333 12.004 17.2433 12.064 17.2433 12.128C17.2433 12.244 17.2173 12.332 17.1653 12.392C17.1133 12.448 17.0413 12.476 16.9493 12.476H15.3413ZM15.3413 14.012V13.34H17.3573C17.3773 13.376 17.3953 13.424 17.4113 13.484C17.4313 13.54 17.4413 13.602 17.4413 13.67C17.4413 13.786 17.4153 13.872 17.3633 13.928C17.3113 13.984 17.2393 14.012 17.1473 14.012H15.3413ZM15.3413 11.024V10.358H17.3273C17.3513 10.394 17.3713 10.44 17.3873 10.496C17.4073 10.548 17.4173 10.608 17.4173 10.676C17.4173 10.792 17.3913 10.88 17.3393 10.94C17.2873 10.996 17.2153 11.024 17.1233 11.024H15.3413Z" fill="#000428"/>
<path d="M8.16673 11.048H8.13073C8.08673 11.184 8.03473 11.338 7.97473 11.51C7.91873 11.678 7.85873 11.854 7.79473 12.038C7.73473 12.222 7.67673 12.402 7.62073 12.578L7.52473 13.034C7.50073 13.11 7.47673 13.192 7.45273 13.28C7.42873 13.368 7.40273 13.456 7.37473 13.544C7.34673 13.632 7.32073 13.716 7.29673 13.796C7.27673 13.872 7.25673 13.94 7.23673 14C7.19673 14.016 7.15073 14.03 7.09873 14.042C7.04673 14.054 6.98473 14.06 6.91273 14.06C6.76473 14.06 6.65073 14.032 6.57073 13.976C6.49073 13.92 6.45073 13.838 6.45073 13.73C6.45073 13.682 6.45673 13.634 6.46873 13.586C6.48473 13.538 6.50273 13.482 6.52273 13.418C6.55873 13.286 6.60873 13.12 6.67273 12.92C6.74073 12.72 6.81473 12.504 6.89473 12.272C6.97473 12.036 7.05673 11.804 7.14073 11.576C7.22473 11.344 7.30273 11.128 7.37473 10.928C7.45073 10.728 7.51273 10.566 7.56073 10.442C7.61273 10.41 7.69473 10.38 7.80673 10.352C7.91873 10.324 8.02873 10.31 8.13673 10.31C8.29273 10.31 8.43273 10.334 8.55673 10.382C8.68073 10.426 8.76073 10.498 8.79673 10.598C8.87673 10.81 8.96273 11.058 9.05473 11.342C9.14673 11.622 9.24073 11.916 9.33673 12.224C9.43273 12.528 9.52473 12.826 9.61273 13.118C9.70073 13.406 9.77873 13.664 9.84673 13.892C9.80673 13.94 9.74873 13.978 9.67273 14.006C9.59673 14.038 9.50673 14.054 9.40273 14.054C9.25073 14.054 9.14273 14.028 9.07873 13.976C9.01873 13.92 8.97273 13.836 8.94073 13.724L8.71873 12.992L8.62873 12.548C8.57273 12.356 8.51473 12.17 8.45473 11.99C8.39873 11.806 8.34473 11.634 8.29273 11.474C8.24473 11.31 8.20273 11.168 8.16673 11.048ZM7.15873 13.16L7.47073 12.506H8.92873L9.04273 13.16H7.15873ZM13.8095 12.218V13.478C13.8095 13.582 13.7875 13.662 13.7435 13.718C13.7035 13.774 13.6375 13.828 13.5455 13.88C13.4375 13.94 13.2835 13.99 13.0835 14.03C12.8835 14.074 12.6835 14.096 12.4835 14.096C12.1035 14.096 11.7615 14.03 11.4575 13.898C11.1575 13.762 10.9195 13.554 10.7435 13.274C10.5675 12.99 10.4795 12.628 10.4795 12.188C10.4795 11.764 10.5675 11.41 10.7435 11.126C10.9235 10.838 11.1635 10.622 11.4635 10.478C11.7635 10.334 12.0955 10.262 12.4595 10.262C12.7035 10.262 12.9155 10.288 13.0955 10.34C13.2795 10.388 13.4195 10.456 13.5155 10.544C13.6155 10.632 13.6655 10.732 13.6655 10.844C13.6655 10.928 13.6435 11.002 13.5995 11.066C13.5555 11.13 13.5035 11.178 13.4435 11.21C13.3395 11.146 13.2115 11.086 13.0595 11.03C12.9115 10.97 12.7315 10.94 12.5195 10.94C12.2955 10.94 12.0935 10.99 11.9135 11.09C11.7335 11.186 11.5935 11.328 11.4935 11.516C11.3935 11.7 11.3435 11.922 11.3435 12.182C11.3435 12.462 11.3935 12.694 11.4935 12.878C11.5935 13.062 11.7295 13.198 11.9015 13.286C12.0775 13.374 12.2755 13.418 12.4955 13.418C12.6075 13.418 12.7075 13.408 12.7955 13.388C12.8875 13.368 12.9575 13.346 13.0055 13.322V12.548H12.2615C12.2415 12.512 12.2215 12.466 12.2015 12.41C12.1855 12.35 12.1775 12.288 12.1775 12.224C12.1775 12.108 12.2035 12.024 12.2555 11.972C12.3115 11.916 12.3835 11.888 12.4715 11.888H13.4795C13.5795 11.888 13.6595 11.918 13.7195 11.978C13.7795 12.034 13.8095 12.114 13.8095 12.218ZM14.8973 11.522H15.7133V13.958C15.6813 13.966 15.6313 13.978 15.5633 13.994C15.4953 14.006 15.4213 14.012 15.3413 14.012C15.2053 14.012 15.0973 13.972 15.0173 13.892C14.9373 13.808 14.8973 13.698 14.8973 13.562V11.522ZM15.7133 12.836H14.8973V10.808C14.8973 10.668 14.9373 10.558 15.0173 10.478C15.0973 10.398 15.2053 10.358 15.3413 10.358C15.4213 10.358 15.4953 10.364 15.5633 10.376C15.6313 10.388 15.6813 10.4 15.7133 10.412V12.836ZM15.3413 12.476V11.81H17.1533C17.1773 11.846 17.1973 11.892 17.2133 11.948C17.2333 12.004 17.2433 12.064 17.2433 12.128C17.2433 12.244 17.2173 12.332 17.1653 12.392C17.1133 12.448 17.0413 12.476 16.9493 12.476H15.3413ZM15.3413 14.012V13.34H17.3573C17.3773 13.376 17.3953 13.424 17.4113 13.484C17.4313 13.54 17.4413 13.602 17.4413 13.67C17.4413 13.786 17.4153 13.872 17.3633 13.928C17.3113 13.984 17.2393 14.012 17.1473 14.012H15.3413ZM15.3413 11.024V10.358H17.3273C17.3513 10.394 17.3713 10.44 17.3873 10.496C17.4073 10.548 17.4173 10.608 17.4173 10.676C17.4173 10.792 17.3913 10.88 17.3393 10.94C17.2873 10.996 17.2153 11.024 17.1233 11.024H15.3413Z" fill="url(#paint2_linear_433_25611)"/>
<path d="M8.16673 11.048H8.13073C8.08673 11.184 8.03473 11.338 7.97473 11.51C7.91873 11.678 7.85873 11.854 7.79473 12.038C7.73473 12.222 7.67673 12.402 7.62073 12.578L7.52473 13.034C7.50073 13.11 7.47673 13.192 7.45273 13.28C7.42873 13.368 7.40273 13.456 7.37473 13.544C7.34673 13.632 7.32073 13.716 7.29673 13.796C7.27673 13.872 7.25673 13.94 7.23673 14C7.19673 14.016 7.15073 14.03 7.09873 14.042C7.04673 14.054 6.98473 14.06 6.91273 14.06C6.76473 14.06 6.65073 14.032 6.57073 13.976C6.49073 13.92 6.45073 13.838 6.45073 13.73C6.45073 13.682 6.45673 13.634 6.46873 13.586C6.48473 13.538 6.50273 13.482 6.52273 13.418C6.55873 13.286 6.60873 13.12 6.67273 12.92C6.74073 12.72 6.81473 12.504 6.89473 12.272C6.97473 12.036 7.05673 11.804 7.14073 11.576C7.22473 11.344 7.30273 11.128 7.37473 10.928C7.45073 10.728 7.51273 10.566 7.56073 10.442C7.61273 10.41 7.69473 10.38 7.80673 10.352C7.91873 10.324 8.02873 10.31 8.13673 10.31C8.29273 10.31 8.43273 10.334 8.55673 10.382C8.68073 10.426 8.76073 10.498 8.79673 10.598C8.87673 10.81 8.96273 11.058 9.05473 11.342C9.14673 11.622 9.24073 11.916 9.33673 12.224C9.43273 12.528 9.52473 12.826 9.61273 13.118C9.70073 13.406 9.77873 13.664 9.84673 13.892C9.80673 13.94 9.74873 13.978 9.67273 14.006C9.59673 14.038 9.50673 14.054 9.40273 14.054C9.25073 14.054 9.14273 14.028 9.07873 13.976C9.01873 13.92 8.97273 13.836 8.94073 13.724L8.71873 12.992L8.62873 12.548C8.57273 12.356 8.51473 12.17 8.45473 11.99C8.39873 11.806 8.34473 11.634 8.29273 11.474C8.24473 11.31 8.20273 11.168 8.16673 11.048ZM7.15873 13.16L7.47073 12.506H8.92873L9.04273 13.16H7.15873ZM13.8095 12.218V13.478C13.8095 13.582 13.7875 13.662 13.7435 13.718C13.7035 13.774 13.6375 13.828 13.5455 13.88C13.4375 13.94 13.2835 13.99 13.0835 14.03C12.8835 14.074 12.6835 14.096 12.4835 14.096C12.1035 14.096 11.7615 14.03 11.4575 13.898C11.1575 13.762 10.9195 13.554 10.7435 13.274C10.5675 12.99 10.4795 12.628 10.4795 12.188C10.4795 11.764 10.5675 11.41 10.7435 11.126C10.9235 10.838 11.1635 10.622 11.4635 10.478C11.7635 10.334 12.0955 10.262 12.4595 10.262C12.7035 10.262 12.9155 10.288 13.0955 10.34C13.2795 10.388 13.4195 10.456 13.5155 10.544C13.6155 10.632 13.6655 10.732 13.6655 10.844C13.6655 10.928 13.6435 11.002 13.5995 11.066C13.5555 11.13 13.5035 11.178 13.4435 11.21C13.3395 11.146 13.2115 11.086 13.0595 11.03C12.9115 10.97 12.7315 10.94 12.5195 10.94C12.2955 10.94 12.0935 10.99 11.9135 11.09C11.7335 11.186 11.5935 11.328 11.4935 11.516C11.3935 11.7 11.3435 11.922 11.3435 12.182C11.3435 12.462 11.3935 12.694 11.4935 12.878C11.5935 13.062 11.7295 13.198 11.9015 13.286C12.0775 13.374 12.2755 13.418 12.4955 13.418C12.6075 13.418 12.7075 13.408 12.7955 13.388C12.8875 13.368 12.9575 13.346 13.0055 13.322V12.548H12.2615C12.2415 12.512 12.2215 12.466 12.2015 12.41C12.1855 12.35 12.1775 12.288 12.1775 12.224C12.1775 12.108 12.2035 12.024 12.2555 11.972C12.3115 11.916 12.3835 11.888 12.4715 11.888H13.4795C13.5795 11.888 13.6595 11.918 13.7195 11.978C13.7795 12.034 13.8095 12.114 13.8095 12.218ZM14.8973 11.522H15.7133V13.958C15.6813 13.966 15.6313 13.978 15.5633 13.994C15.4953 14.006 15.4213 14.012 15.3413 14.012C15.2053 14.012 15.0973 13.972 15.0173 13.892C14.9373 13.808 14.8973 13.698 14.8973 13.562V11.522ZM15.7133 12.836H14.8973V10.808C14.8973 10.668 14.9373 10.558 15.0173 10.478C15.0973 10.398 15.2053 10.358 15.3413 10.358C15.4213 10.358 15.4953 10.364 15.5633 10.376C15.6313 10.388 15.6813 10.4 15.7133 10.412V12.836ZM15.3413 12.476V11.81H17.1533C17.1773 11.846 17.1973 11.892 17.2133 11.948C17.2333 12.004 17.2433 12.064 17.2433 12.128C17.2433 12.244 17.2173 12.332 17.1653 12.392C17.1133 12.448 17.0413 12.476 16.9493 12.476H15.3413ZM15.3413 14.012V13.34H17.3573C17.3773 13.376 17.3953 13.424 17.4113 13.484C17.4313 13.54 17.4413 13.602 17.4413 13.67C17.4413 13.786 17.4153 13.872 17.3633 13.928C17.3113 13.984 17.2393 14.012 17.1473 14.012H15.3413ZM15.3413 11.024V10.358H17.3273C17.3513 10.394 17.3713 10.44 17.3873 10.496C17.4073 10.548 17.4173 10.608 17.4173 10.676C17.4173 10.792 17.3913 10.88 17.3393 10.94C17.2873 10.996 17.2153 11.024 17.1233 11.024H15.3413Z" fill="url(#paint3_linear_433_25611)"/>
<defs>
<linearGradient id="paint0_linear_433_25611" x1="2" y1="2" x2="22" y2="22" gradientUnits="userSpaceOnUse">
<stop stop-color="#0094FF"/>
<stop offset="1" stop-color="#00E0FF"/>
</linearGradient>
<linearGradient id="paint1_linear_433_25611" x1="17" y1="4" x2="21.5" y2="8.5" gradientUnits="userSpaceOnUse">
<stop stop-color="#0094FF"/>
<stop offset="1" stop-color="#00E0FF"/>
</linearGradient>
<linearGradient id="paint2_linear_433_25611" x1="12" y1="17" x2="12" y2="7" gradientUnits="userSpaceOnUse">
<stop stop-color="#FEDD2C"/>
<stop offset="1" stop-color="#F6F50A"/>
</linearGradient>
<linearGradient id="paint3_linear_433_25611" x1="6" y1="7" x2="15.8361" y2="18.8033" gradientUnits="userSpaceOnUse">
<stop stop-color="#FF7474"/>
<stop offset="1" stop-color="#FFD600"/>
</linearGradient>
</defs>
</svg>
