<svg width="16" height="16" viewBox="0 0 16 16" fill="none" xmlns="http://www.w3.org/2000/svg">
<path d="M1.33333 7.99984C1.33333 5.48568 1.33333 4.2286 2.11438 3.44755C2.89543 2.6665 4.1525 2.6665 6.66666 2.6665H9.33333C11.8475 2.6665 13.1046 2.6665 13.8856 3.44755C14.6667 4.2286 14.6667 5.48568 14.6667 7.99984V9.33317C14.6667 11.8473 14.6667 13.1044 13.8856 13.8855C13.1046 14.6665 11.8475 14.6665 9.33333 14.6665H6.66666C4.1525 14.6665 2.89543 14.6665 2.11438 13.8855C1.33333 13.1044 1.33333 11.8473 1.33333 9.33317V7.99984Z" stroke="#00E0FF"/>
<path d="M4.66667 2.6665V1.6665" stroke="#00E0FF" stroke-linecap="round"/>
<path d="M11.3333 2.6665V1.6665" stroke="#00E0FF" stroke-linecap="round"/>
<path d="M1.66667 6H14.3333" stroke="#00E0FF" stroke-linecap="round"/>
<path d="M12 11.3333C12 11.7015 11.7015 12 11.3333 12C10.9651 12 10.6667 11.7015 10.6667 11.3333C10.6667 10.9651 10.9651 10.6667 11.3333 10.6667C11.7015 10.6667 12 10.9651 12 11.3333Z" fill="#00E0FF"/>
<path d="M12 8.66667C12 9.03486 11.7015 9.33333 11.3333 9.33333C10.9651 9.33333 10.6667 9.03486 10.6667 8.66667C10.6667 8.29848 10.9651 8 11.3333 8C11.7015 8 12 8.29848 12 8.66667Z" fill="#00E0FF"/>
<path d="M8.66666 11.3333C8.66666 11.7015 8.36818 12 7.99999 12C7.63181 12 7.33333 11.7015 7.33333 11.3333C7.33333 10.9651 7.63181 10.6667 7.99999 10.6667C8.36818 10.6667 8.66666 10.9651 8.66666 11.3333Z" fill="#00E0FF"/>
<path d="M8.66666 8.66667C8.66666 9.03486 8.36818 9.33333 7.99999 9.33333C7.63181 9.33333 7.33333 9.03486 7.33333 8.66667C7.33333 8.29848 7.63181 8 7.99999 8C8.36818 8 8.66666 8.29848 8.66666 8.66667Z" fill="#00E0FF"/>
<path d="M5.33333 11.3333C5.33333 11.7015 5.03486 12 4.66667 12C4.29848 12 4 11.7015 4 11.3333C4 10.9651 4.29848 10.6667 4.66667 10.6667C5.03486 10.6667 5.33333 10.9651 5.33333 11.3333Z" fill="#00E0FF"/>
<path d="M5.33333 8.66667C5.33333 9.03486 5.03486 9.33333 4.66667 9.33333C4.29848 9.33333 4 9.03486 4 8.66667C4 8.29848 4.29848 8 4.66667 8C5.03486 8 5.33333 8.29848 5.33333 8.66667Z" fill="#00E0FF"/>
</svg>
