<svg width="120" height="120" viewBox="0 0 120 120" fill="none" xmlns="http://www.w3.org/2000/svg">
<path d="M60.4589 76.7417C59.9148 76.7417 59.3708 76.7471 58.8267 76.7471C58.8267 76.7417 58.8267 76.7417 58.8267 76.7363C59.3708 76.7363 59.9148 76.7417 60.4589 76.7417Z" fill="#61200D"/>
<path d="M87.5612 93.1383C86.5161 94.5335 85.5733 95.7618 84.0219 96.6453C84.3235 95.2985 84.4905 93.5693 84.1134 92.2279C83.5963 90.3855 81.8616 89.8145 80.2132 89.3296C76.7386 88.3115 72.9299 88.7263 69.3583 88.7263C66.9341 88.7209 64.5153 88.7263 62.0911 88.7371C61.547 88.7371 61.003 88.7424 60.4589 88.7424C59.9148 88.7424 59.3707 88.7371 58.8266 88.7371C56.4078 88.7263 53.989 88.7209 51.5648 88.7263C47.9878 88.7263 44.1792 88.3115 40.7099 89.3296C39.0561 89.8145 37.3268 90.3855 36.8097 92.2279C36.4326 93.5693 36.5996 95.2985 36.9012 96.6453C35.3444 95.7618 34.407 94.5335 33.3619 93.1383C28.185 86.2375 27.2099 63.6734 27.6894 55.3181C27.9318 51.1701 28.7506 47.1459 29.5156 43.0787C30.2913 38.9468 31.5088 34.8958 33.1465 31.0279C34.9026 26.8744 37.2568 22.7964 40.322 19.4564C43.1664 16.3535 46.6249 13.8916 50.7891 12.5987C52.055 12.2055 53.4287 11.9415 54.7001 12.324C57.4949 13.1649 59.5032 16.2921 62.7855 14.6582C63.7256 14.1901 64.2858 13.2274 65.207 12.7194C67.0009 11.7303 68.3358 12.5987 70.134 12.5987C74.2982 13.8916 77.7567 16.3535 80.6011 19.4564C83.6663 22.7964 86.0205 26.8744 87.7713 31.0279C89.4089 34.8958 90.6318 38.9468 91.4075 43.0787C92.1725 47.1459 92.9913 51.1701 93.2283 55.3181C93.7132 63.6734 92.7381 86.2375 87.5612 93.1383Z" fill="#61200D"/>
<path d="M62.0914 76.7373C62.0914 76.7427 62.0914 76.7427 62.0914 76.7481C61.5473 76.7481 61.0032 76.7427 60.4591 76.7427C61.0032 76.7427 61.5473 76.7373 62.0914 76.7373Z" fill="#61200D"/>
<path d="M100.412 104.352V104.357C100.407 104.357 100.401 104.362 100.396 104.368C97.9017 106.641 95.2136 108.704 92.3638 110.53C91.1841 111.29 89.9774 112.007 88.7437 112.68C87.3862 113.418 85.9909 114.113 84.5795 114.743C77.0754 118.126 68.7524 120.001 60.0038 120.001C51.6323 120.001 43.6648 118.288 36.4192 115.19C36.333 115.153 36.2522 115.115 36.166 115.077C35.9128 114.969 35.6704 114.862 35.4226 114.743C34.6523 114.398 33.8927 114.043 33.1493 113.666C31.253 112.712 29.4107 111.667 27.6329 110.525C24.7832 108.693 22.1004 106.625 19.6062 104.357L23.0431 97.5207C24.4061 94.8164 26.3293 92.4461 28.6888 90.5714C29.1305 90.2213 29.5884 89.8819 30.0679 89.5694C30.3588 89.3701 30.6604 89.1815 30.9675 88.9984C31.113 88.9068 31.2692 88.8152 31.4254 88.729C33.5533 87.4792 35.9398 86.2618 37.9976 85.6315C38.0246 85.6207 38.0515 85.6099 38.0784 85.6045C38.0946 85.5992 38.1054 85.5938 38.1108 85.5992C38.4986 85.5022 38.8865 85.4052 39.2851 85.3082C39.2905 85.3029 39.2959 85.3029 39.3067 85.3029C39.3175 85.3029 39.3282 85.2975 39.3336 85.2975C39.8077 85.179 40.2871 85.0658 40.772 84.9527C40.7773 84.9527 40.7773 84.9527 40.7773 84.9527C41.0844 84.8773 41.4022 84.8019 41.7147 84.7318C47.8829 83.3258 54.6436 82.1407 59.9876 82.1299H60.0145C65.3585 82.1407 72.1193 83.3258 78.2767 84.7318C78.5999 84.8073 78.9231 84.8827 79.241 84.9527C79.2679 84.9635 79.2948 84.9689 79.3272 84.9796C79.7473 85.0712 80.1675 85.179 80.5823 85.2759C80.5931 85.2813 80.5985 85.2813 80.6093 85.2813C81.0618 85.3944 81.5143 85.5022 81.956 85.6153C81.9722 85.6207 81.983 85.6207 81.9991 85.6261C82.0099 85.6207 82.0207 85.6261 82.0368 85.6369C84.2455 86.3156 86.8313 87.6732 89.067 89.0038C89.3417 89.1654 89.6111 89.3378 89.875 89.5156C92.9025 91.5034 95.3537 94.2777 96.9806 97.5207L100.412 104.352Z" fill="white"/>
<path d="M75.1049 84.8682C75.1049 94.2008 68.3155 101.796 59.9731 101.796C51.6307 101.796 44.8414 94.2008 44.8414 84.8682C44.8414 84.8629 44.8414 84.8575 44.8414 84.8521C44.842 83.9449 45.4281 83.1654 46.2205 82.9725C50.9315 81.8235 55.935 80.9131 59.964 80.9082H59.9861C64.0151 80.9125 69.018 81.8235 73.7258 82.972C74.5177 83.1654 75.1038 83.9449 75.1043 84.8515C75.1049 84.8575 75.1049 84.8629 75.1049 84.8682Z" fill="#B5E0F6"/>
<path d="M40.7746 84.9541C40.4191 85.0726 39.9397 85.1857 39.3363 85.2989C39.8104 85.1803 40.2898 85.0672 40.7746 84.9541Z" fill="#C5E4F7"/>
<path d="M80.5849 85.2768C80.0678 85.1798 79.653 85.0828 79.3243 84.9805C79.7499 85.072 80.1701 85.1803 80.5849 85.2768Z" fill="#C5E4F7"/>
<path d="M71.7568 84.301V64.7422H48.2433V84.3031C48.2433 84.315 48.2428 84.3269 48.2428 84.3387C48.2428 92.3848 53.507 98.9075 60.0001 98.9075C66.4936 98.9075 71.7573 92.3848 71.7573 84.3387C71.7573 84.3263 71.7568 84.3139 71.7568 84.301Z" fill="#FCD8D8"/>
<path d="M70.0302 66.8311H48.2433C48.2433 66.8311 48.2433 74.1047 48.2433 74.1063C48.2433 74.5065 48.9129 75.2882 49.1305 75.6292C49.4204 76.0823 49.7296 76.524 50.0625 76.9469C50.6249 77.6601 51.2568 78.3217 51.9728 78.8824C53.7203 80.2518 55.8848 81.0012 58.0671 81.3002C60.4078 81.6207 62.6219 81.1499 64.9513 81.1332C65.0595 81.1326 65.1673 81.1332 65.2756 81.1358C67.9195 81.1983 70.0307 83.7146 70.0307 86.7836C70.0307 90.6483 68.6452 94.1375 66.4208 96.6177C69.6332 94.1833 71.7573 89.969 71.7573 85.1864V81.0885V66.8321H70.0302V66.8311Z" fill="#F4BDC5"/>
<path d="M38.8089 64.7191C43.1619 64.7191 46.6907 60.7689 46.6907 55.8962C46.6907 51.0234 43.1619 47.0732 38.8089 47.0732C34.4559 47.0732 30.9271 51.0234 30.9271 55.8962C30.9271 60.7689 34.4559 64.7191 38.8089 64.7191Z" fill="#FFDBD9"/>
<path d="M38.8088 62.0105C35.882 62.0105 33.5004 59.2674 33.5004 55.8951C33.5004 52.5234 35.8814 49.7803 38.8088 49.7803C41.7361 49.7803 44.1172 52.5234 44.1172 55.8951C44.1172 59.2674 41.7356 62.0105 38.8088 62.0105Z" fill="#F4BDC5"/>
<path d="M81.1905 64.7191C85.5435 64.7191 89.0723 60.7689 89.0723 55.8962C89.0723 51.0234 85.5435 47.0732 81.1905 47.0732C76.8375 47.0732 73.3087 51.0234 73.3087 55.8962C73.3087 60.7689 76.8375 64.7191 81.1905 64.7191Z" fill="#FFDBD9"/>
<path d="M81.1906 62.0105C78.2633 62.0105 75.8822 59.2674 75.8822 55.8951C75.8822 52.5234 78.2633 49.7803 81.1906 49.7803C84.1179 49.7803 86.499 52.5234 86.499 55.8951C86.4985 59.2674 84.1174 62.0105 81.1906 62.0105Z" fill="#F4BDC5"/>
<path d="M68.7739 20.7422C75.6473 20.7422 81.2197 26.6146 81.2197 33.8591V53.112H81.1889C80.9374 64.0299 77.5408 68.6768 72.428 73.4804C70.4779 75.3153 66.8303 78.2011 63.9881 79.2527C61.3985 80.2105 58.5827 80.2078 55.9942 79.2473C53.1364 78.1871 49.4629 75.2851 47.5058 73.4314C42.4237 68.617 39.0476 63.9922 38.796 53.112C38.7858 52.6735 38.7804 52.2236 38.7804 51.769V33.8597C38.7804 26.6157 44.3522 20.7427 51.2256 20.7427H68.7739V20.7422Z" fill="#FFDBD9"/>
<path d="M39.9979 62.0114L39.0202 44.059L36.0621 38.8066L37.396 56.9783C38.2455 61.7846 39.9979 62.0114 39.9979 62.0114Z" fill="#61200D"/>
<path d="M79.9548 62.0111L80.9326 44.0588L83.764 39.0908L82.5568 56.978C81.7078 61.7844 79.9548 62.0111 79.9548 62.0111Z" fill="#61200D"/>
<path d="M84.1325 32.9084C84.1487 34.9328 83.9914 36.9912 83.764 39.0916C83.4931 41.5966 83.2668 43.9788 83.1418 46.48C83.088 47.789 82.9317 49.2166 82.9102 50.5418C82.9102 50.2779 82.0698 49.5775 81.892 49.4321C81.3587 49.0173 80.7446 48.721 80.7069 47.9883C80.6692 47.051 80.6368 46.1191 80.5237 45.1925C80.4645 44.6753 80.2328 44.0989 80.2705 43.5871C80.3082 43.0215 80.3783 42.4559 80.4214 41.8902C80.5076 40.635 80.5722 39.3798 80.4375 38.13C80.1466 35.3611 79.247 32.6783 77.5285 30.475C75.1313 27.4044 71.5273 25.4651 67.6917 25.1526C67.3308 25.1257 66.9699 25.1095 66.6036 25.1095C66.5982 25.1095 52.7965 25.1095 52.7965 25.1095C45.1092 25.1095 38.8763 31.4231 38.8763 39.2128V44.1043C38.4061 44.1054 37.7634 44.608 37.3319 44.7793C36.2712 45.2016 36.3999 44.226 36.2959 43.3905C36.0395 41.3278 35.8386 39.2581 35.6425 37.1889C35.2972 33.551 35.455 30.2671 36.791 26.8393C38.1615 23.3237 40.2851 20.1125 42.9199 17.4173C45.4954 14.7825 48.823 11.9543 52.6225 11.5864C53.5356 11.498 54.4622 11.5346 55.357 11.7464C56.4452 12.0039 57.4827 12.4849 58.363 13.1766C58.44 13.237 58.5203 13.3011 58.6167 13.3183C58.7864 13.3485 58.9415 13.2273 59.0746 13.1185C61.4767 11.1468 64.5425 11.1182 67.4213 11.8751C75.0532 13.8813 82.1587 20.6986 83.7937 28.5653C84.0862 29.9681 84.1212 31.4792 84.1325 32.9084Z" fill="#61200D"/>
<path d="M92.3639 108.725V110.529C91.1841 111.289 89.9774 112.005 88.7437 112.679C87.3862 113.417 85.991 114.112 84.5795 114.742C77.0754 118.125 68.7524 120 60.0038 120C51.6323 120 43.6648 118.287 36.4192 115.189C36.333 115.151 36.2522 115.114 36.166 115.076C35.9128 114.968 35.6704 114.86 35.4226 114.742C34.6523 114.397 33.8927 114.042 33.1493 113.665C31.253 112.711 29.4107 111.666 27.6329 110.524V108.595C27.6599 108.294 27.8323 107.987 28.1393 107.917C29.3891 107.577 29.9494 106.058 30.0679 105.654V88.2107C30.0679 88.1137 30.0787 88.0168 30.1002 87.9252C30.1972 87.4404 30.5581 87.0363 31.0537 86.8963C31.7702 86.6916 32.5298 86.4761 33.3378 86.2552C34.4045 85.9535 35.5411 85.6411 36.7478 85.3286C37.2111 85.2101 37.6744 85.3394 37.9976 85.6303C38.0407 85.6572 38.0784 85.6949 38.1108 85.7327C38.3316 85.9697 38.4663 86.2929 38.4663 86.6538V93.9318C38.4663 108.752 43.6702 110.055 50.0808 110.055H69.8621C76.2889 110.055 81.4766 107.653 81.4766 93.9318V86.6431C81.4766 86.2821 81.6113 85.9643 81.8375 85.7219C81.8752 85.6842 81.9129 85.6465 81.956 85.6141C82.2793 85.334 82.7372 85.2047 83.1897 85.3232C84.4072 85.6411 85.5708 85.9535 86.6428 86.2552C87.4455 86.4761 88.1889 86.6862 88.8892 86.8963C89.3848 87.0363 89.7457 87.4404 89.8427 87.9252C89.8643 88.0168 89.875 88.1137 89.875 88.2107V105.541C89.875 105.541 90.4083 107.513 91.8359 107.922C92.1322 108.014 92.3154 108.283 92.3585 108.595C92.3638 108.638 92.3639 108.687 92.3639 108.725Z" fill="#B5E0F6"/>
<path d="M37.1249 107.776C37.1249 108.979 36.1493 109.955 34.9458 109.955C33.7423 109.955 32.7667 108.979 32.7667 107.776C32.7667 106.572 33.7423 105.597 34.9458 105.597C36.1493 105.597 37.1249 106.572 37.1249 107.776Z" fill="#245AA8"/>
<path d="M87.2148 107.776C87.2148 108.979 86.2392 109.955 85.0358 109.955C83.8323 109.955 82.8567 108.979 82.8567 107.776C82.8567 106.572 83.8323 105.597 85.0358 105.597C86.2392 105.597 87.2148 106.572 87.2148 107.776Z" fill="#245AA8"/>
<path d="M82.3155 46.5252C82.1635 47.5492 82.0197 48.6951 81.6857 49.6809C81.4654 50.3257 80.6843 51.2814 80.6843 51.9796C80.5932 50.1894 80.0545 48.3535 79.1673 46.7832C78.9722 46.4406 78.753 46.1114 78.5084 45.8022C78.0478 45.2193 77.494 44.6909 76.853 44.31C76.0983 43.8612 75.5606 43.823 74.7068 43.8532C72.6182 43.9264 70.4903 43.7433 68.4901 43.1114C66.5707 42.5048 64.9567 41.1699 63.6687 39.6313C64.4627 40.9081 65.3182 42.146 66.2318 43.3398C66.0632 43.1194 65.5046 42.9422 65.26 42.7876C64.9088 42.5657 64.5689 42.3259 64.2413 42.0706C63.5846 41.5588 62.977 40.984 62.42 40.365C61.2995 39.119 60.3863 37.6968 59.6575 36.1906C59.8789 36.871 59.2939 38.012 58.9582 38.5954C58.433 39.508 57.6292 40.2277 56.7867 40.8596C53.8578 43.0559 50.0653 44.3886 46.4996 43.5601C48.0581 43.538 49.5939 42.8253 50.6169 41.6488C49.1419 42.3771 47.4283 42.4078 45.8488 42.8668C41.7536 44.0568 39.4727 47.8628 39.2637 51.979C39.2637 51.2808 38.482 50.3252 38.2622 49.6803C37.9288 48.694 37.7844 47.5487 37.6325 46.5246C36.7312 40.4442 37.1746 32.327 42.1086 27.9387C45.5148 24.9042 50.0502 23.6043 54.5091 23.1841C59.5874 22.7052 64.8501 23.099 69.8611 23.9927C72.9797 24.5486 75.8047 26.0667 78.0284 28.3514C82.8299 33.2471 83.2706 40.0785 82.3155 46.5252Z" fill="#61200D"/>
<path d="M54.8821 49.6171C54.5362 48.4389 52.9491 47.9369 51.836 48.0016C51.1923 48.0392 50.5747 48.2466 50.0053 48.5412C49.4346 48.8367 48.7688 49.2372 48.6587 49.9199C48.5954 50.3127 48.8179 50.6839 49.2483 50.6935C49.5539 50.7004 49.8484 50.6394 50.1076 50.4719C50.2976 50.3494 50.4908 50.2338 50.6931 50.1337C50.7436 50.109 50.7945 50.0851 50.8459 50.0617C50.8564 50.0571 50.867 50.0516 50.867 50.0516C50.8766 50.0484 50.8899 50.0438 50.9087 50.0374C51.0143 50.0011 51.1189 49.9635 51.2262 49.9332C51.3341 49.903 51.4428 49.8796 51.552 49.8566C51.5694 49.8529 51.5832 49.8502 51.5947 49.8484C51.6507 49.8424 51.7071 49.8373 51.7631 49.8332C51.8612 49.8259 51.959 49.8217 52.0576 49.8236C52.1072 49.8245 52.1563 49.8263 52.2054 49.8295C52.2122 49.83 52.2334 49.8318 52.2554 49.8332C52.2829 49.8369 52.3191 49.8419 52.3297 49.8442C52.3783 49.8534 52.4261 49.864 52.4742 49.8754C52.582 49.902 52.6867 49.9355 52.7913 49.9722C52.8294 49.9924 52.8693 50.0099 52.9074 50.03C52.9932 50.0759 53.0739 50.1287 53.1556 50.1815L53.1652 50.1874L53.1707 50.1938C53.2033 50.2287 53.2432 50.2585 53.2799 50.2893C53.4093 50.3971 53.5332 50.4668 53.6795 50.5416C54.2916 50.8564 55.0932 50.3352 54.8821 49.6171Z" fill="#463047"/>
<path d="M71.1585 49.7236C70.8868 49.1354 70.1032 48.7568 69.5269 48.5279C68.9731 48.3077 68.3555 48.2076 67.7618 48.1971C67.1823 48.187 66.5794 48.2728 66.0312 48.4637C65.3971 48.6843 64.7556 48.9927 64.4675 49.6369C64.2303 50.1677 64.6185 50.7256 65.2122 50.6054C65.4852 50.5499 65.7508 50.4696 66.0032 50.3466C66.0601 50.3191 66.116 50.2902 66.1729 50.2622C66.183 50.2572 66.1885 50.2544 66.1963 50.2512C66.295 50.2127 66.3941 50.1769 66.4955 50.1461C66.6162 50.109 66.7387 50.0778 66.8625 50.0525C66.9121 50.042 66.9621 50.0328 67.0121 50.0241C67.0268 50.0218 67.0396 50.02 67.0525 50.0181C67.2897 49.9984 67.5246 49.9879 67.7627 50.0012C67.8137 50.0039 67.8641 50.0076 67.9151 50.0122C67.938 50.0145 67.9587 50.0163 67.9752 50.0186C68.0756 50.0356 68.1757 50.053 68.2748 50.0759C68.3858 50.1016 68.4964 50.1315 68.6051 50.1659C68.6657 50.1851 68.7258 50.2058 68.785 50.2274C68.8226 50.2411 68.8515 50.2517 68.8662 50.2567C68.9593 50.2976 69.1071 50.3645 68.9497 50.2911C69.0071 50.3177 69.0649 50.3434 69.1213 50.3714C69.2232 50.4219 69.3227 50.4765 69.42 50.5352C69.6857 50.6967 69.8985 50.8692 70.2004 50.972C70.517 51.0798 70.9024 50.9234 71.0933 50.6678C71.3103 50.3751 71.308 50.047 71.1585 49.7236Z" fill="#463047"/>
<path d="M55.288 54.1744C55.1682 54.0698 55.0186 54.0487 54.8773 54.1212C54.341 54.3965 54.1267 54.9654 53.7009 55.3636C53.3192 55.7206 52.7814 55.9358 52.2799 55.9431C51.6858 55.9523 51.1352 55.7403 50.6493 55.4077C50.09 55.025 49.7372 54.4442 49.3114 53.9344C49.1123 53.6958 48.7599 53.7133 48.5085 53.8307C48.1139 54.0152 47.5872 54.2827 47.3917 54.6938C47.2843 54.92 47.416 55.1452 47.6638 55.1677C47.9042 55.1893 48.152 55.1425 48.3997 55.1049C48.7259 55.7835 49.31 56.3556 49.9092 56.7841C50.6232 57.2953 51.5518 57.6215 52.4364 57.5522C53.3334 57.482 54.1795 57.1186 54.8356 56.4983C55.41 55.956 56.0446 54.8365 55.288 54.1744Z" fill="#463047"/>
<path d="M72.4591 54.8017C72.4141 54.7163 72.3356 54.6365 72.2728 54.5622C72.1627 54.4314 72.0516 54.2906 71.9039 54.2015C71.7878 54.1318 71.6694 54.0653 71.5479 54.0047C71.4901 53.9758 71.4322 53.9574 71.3726 53.9418C71.3364 53.9116 71.3061 53.8749 71.2643 53.8505C70.9436 53.6629 70.4311 53.689 70.1801 53.9905C70.0544 54.1414 69.9594 54.2993 69.8557 54.4635C69.8535 54.4672 69.7787 54.5755 69.7667 54.597C69.7314 54.6406 69.6952 54.6838 69.6571 54.7251C69.424 54.9802 69.3006 55.0889 69.0799 55.2302C68.9583 55.3082 68.8321 55.3761 68.7027 55.4399C68.689 55.4463 68.6752 55.4527 68.6614 55.4587C68.6601 55.4587 68.6481 55.4628 68.6224 55.4729C68.5545 55.4972 68.4866 55.5211 68.4173 55.5417C68.1164 55.6312 67.9934 55.6431 67.6484 55.6239C67.2386 55.6009 66.6927 55.3812 66.3352 55.0953C65.8663 54.7195 65.5878 54.2139 65.1914 53.756C64.8734 53.389 64.3412 53.7124 64.3095 54.1212C64.2449 54.9457 64.7633 55.6711 65.3616 56.191C66.0008 56.7471 66.7624 57.0926 67.6057 57.1839C68.4054 57.2706 69.2354 57.076 69.948 56.7149C70.2953 56.5388 70.6233 56.3025 70.8991 56.0281C71.1556 55.773 71.4203 55.4555 71.5772 55.1118C71.6002 55.1316 71.6236 55.1508 71.6465 55.1715C71.7185 55.2362 71.7864 55.3082 71.8672 55.3623C71.897 55.3825 71.9301 55.3995 71.9626 55.4151C72.025 55.4454 72.0879 55.4647 72.1581 55.4679C72.1696 55.4683 72.1792 55.4637 72.1902 55.4628C72.2141 55.4697 72.2384 55.4761 72.2622 55.4835C72.3898 55.5216 72.5467 55.4142 72.5366 55.2747C72.5343 55.2435 72.5311 55.2128 72.5284 55.1816C72.5596 55.0549 72.5215 54.9205 72.4591 54.8017Z" fill="#463047"/>
<path d="M62.0009 61.9279C62.0344 61.7962 61.9142 61.671 61.7807 61.7077C61.7724 61.71 61.7637 61.7118 61.7554 61.7141C61.6816 61.7036 61.61 61.7049 61.5315 61.7182C61.5288 61.7187 61.5297 61.7187 61.526 61.7192C61.443 61.7315 61.426 61.7338 61.3636 61.7554C61.2209 61.804 61.0773 61.8472 60.9383 61.9054C61.0332 61.866 60.9452 61.9022 60.925 61.9096C60.8938 61.9206 60.863 61.9321 60.8318 61.9421C60.769 61.9623 60.7057 61.9793 60.641 61.994C60.6153 62 60.5896 62.005 60.5634 62.0101C60.5634 62.0101 60.529 62.0156 60.507 62.0192C60.4863 62.0215 60.457 62.0247 60.4506 62.0252C60.4175 62.0279 60.3845 62.0298 60.3514 62.0312C60.2918 62.0335 60.2326 62.0339 60.173 62.0316C60.1399 62.0302 60.1069 62.0275 60.0743 62.0257C60.0656 62.0252 60.0431 62.0229 60.028 62.0211C59.9133 62.0045 59.7972 61.9857 59.6852 61.9591C59.4517 61.9031 59.2783 61.8325 59.092 61.6866C58.7607 61.4269 58.3482 61.8219 58.6258 62.1527C59.0557 62.6652 59.6889 62.9373 60.3514 62.9456C60.6662 62.9497 60.9938 62.8997 61.2893 62.7887C61.6265 62.662 61.9899 62.3588 61.9876 61.9779C61.9922 61.9614 61.9968 61.9444 62.0009 61.9279Z" fill="#D88787"/>
<path d="M61.8157 67.5059C61.656 67.482 61.5174 67.471 61.3628 67.5265C61.3114 67.5449 61.2586 67.5591 61.2068 67.5765C61.1568 67.5931 61.1091 67.6155 61.0604 67.6362C61.0591 67.6366 61.0536 67.6389 61.0329 67.6463C60.9219 67.6871 60.8099 67.7229 60.6948 67.7495C60.6406 67.7619 60.5856 67.7697 60.5319 67.7821C60.5282 67.783 60.5305 67.7825 60.5278 67.7835C60.4952 67.7867 60.4626 67.7903 60.4296 67.7931C60.319 67.8018 60.2075 67.8032 60.0965 67.7977C60.0621 67.7959 60.0276 67.7936 59.9928 67.7903C59.9886 67.7899 59.9675 67.7881 59.9515 67.7862C59.9354 67.7839 59.9102 67.7803 59.9056 67.7793C59.8781 67.7747 59.851 67.7692 59.8235 67.7637C59.7083 67.7399 59.5945 67.7082 59.4839 67.6683C59.4133 67.6426 59.349 67.6119 59.2738 67.6018C59.205 67.5926 59.1398 67.6031 59.0705 67.6073C58.8159 67.6229 58.6672 67.8739 58.7861 68.1033C58.8677 68.2616 58.9705 68.3707 59.1343 68.4446C59.2756 68.5089 59.4197 68.5671 59.5688 68.6103C59.8455 68.6901 60.1414 68.7295 60.4291 68.7272C60.993 68.7227 61.8941 68.5841 62.062 67.9404C62.1066 67.7725 62.0074 67.5343 61.8157 67.5059Z" fill="#E17F8E"/>
<g filter="url(#filter0_f_692_1121)">
<path d="M75.7248 58.605C75.5307 58.2159 75.1889 57.9659 74.7998 57.8016C74.2506 57.5699 73.611 57.4814 73.0196 57.4598C72.3694 57.4359 71.7418 57.5667 71.1522 57.8347C70.8916 57.953 70.6374 58.1159 70.4488 58.3325C70.023 58.8211 69.8872 59.5139 70.2231 60.0966C70.5768 60.7101 71.2779 60.9895 71.9317 61.1597C72.5658 61.3244 73.2008 61.3584 73.8459 61.2556C73.9629 61.2372 74.0863 61.2093 74.2107 61.1767C74.4598 61.1551 74.7154 61.062 74.9301 60.95C75.3141 60.75 75.5995 60.4196 75.7656 60.0255C75.9634 59.5566 75.9537 59.0634 75.7248 58.605Z" fill="#E17F8E"/>
</g>
<g filter="url(#filter1_f_692_1121)">
<path d="M49.1888 58.605C48.9947 58.2159 48.6529 57.9659 48.2638 57.8016C47.7146 57.5699 47.075 57.4814 46.4836 57.4598C45.8334 57.4359 45.2058 57.5667 44.6162 57.8347C44.3556 57.953 44.1014 58.1159 43.9128 58.3325C43.487 58.8211 43.3512 59.5139 43.6871 60.0966C44.0408 60.7101 44.7419 60.9895 45.3957 61.1597C46.0298 61.3244 46.6648 61.3584 47.3099 61.2556C47.4269 61.2372 47.5503 61.2093 47.6747 61.1767C47.9238 61.1551 48.1794 61.062 48.3941 60.95C48.7781 60.75 49.063 60.4196 49.2296 60.0255C49.4274 59.5566 49.4177 59.0634 49.1888 58.605Z" fill="#E17F8E"/>
</g>
<defs>
<filter id="filter0_f_692_1121" x="63.0345" y="50.457" width="19.8712" height="17.8564" filterUnits="userSpaceOnUse" color-interpolation-filters="sRGB">
<feFlood flood-opacity="0" result="BackgroundImageFix"/>
<feBlend mode="normal" in="SourceGraphic" in2="BackgroundImageFix" result="shape"/>
<feGaussianBlur stdDeviation="3.5" result="effect1_foregroundBlur_692_1121"/>
</filter>
<filter id="filter1_f_692_1121" x="36.4985" y="50.457" width="19.8712" height="17.8564" filterUnits="userSpaceOnUse" color-interpolation-filters="sRGB">
<feFlood flood-opacity="0" result="BackgroundImageFix"/>
<feBlend mode="normal" in="SourceGraphic" in2="BackgroundImageFix" result="shape"/>
<feGaussianBlur stdDeviation="3.5" result="effect1_foregroundBlur_692_1121"/>
</filter>
</defs>
</svg>
