<svg width="24" height="24" viewBox="0 0 24 24" fill="none" xmlns="http://www.w3.org/2000/svg">
<path d="M2.97515 20.503C4.09801 21.6859 5.83801 22.2859 8.14372 22.2859C10.4494 22.2859 12.1894 21.6859 13.3123 20.503C14.6169 19.123 14.5749 17.4576 14.5723 17.3453V17.3401C14.5723 16.2859 13.7152 15.4287 12.6609 15.4287H3.62658C2.5723 15.4287 1.71515 16.2859 1.71515 17.3059V17.317C1.71172 17.4799 1.67915 19.1316 2.97515 20.503Z" fill="url(#paint0_linear_215_1846)"/>
<path d="M2.97515 20.503C4.09801 21.6859 5.83801 22.2859 8.14372 22.2859C10.4494 22.2859 12.1894 21.6859 13.3123 20.503C14.6169 19.123 14.5749 17.4576 14.5723 17.3453V17.3401C14.5723 16.2859 13.7152 15.4287 12.6609 15.4287H3.62658C2.5723 15.4287 1.71515 16.2859 1.71515 17.3059V17.317C1.71172 17.4799 1.67915 19.1316 2.97515 20.503Z" fill="url(#paint1_linear_215_1846)"/>
<path d="M8.14286 14.1431C7.17741 14.1409 6.25215 13.7563 5.56947 13.0737C4.88679 12.391 4.50226 11.4657 4.5 10.5003C4.50226 9.53483 4.88679 8.60957 5.56947 7.92689C6.25215 7.24421 7.17741 6.85969 8.14286 6.85742C9.10831 6.85969 10.0336 7.24421 10.7162 7.92689C11.3989 8.60957 11.7835 9.53483 11.7857 10.5003C11.7835 11.4657 11.3989 12.391 10.7162 13.0737C10.0336 13.7563 9.10831 14.1409 8.14286 14.1431Z" fill="url(#paint2_linear_215_1846)"/>
<path d="M15.2143 11.9996C15.1029 11.9996 14.9829 11.9824 14.8714 11.9482C14.6583 11.8762 14.4732 11.7389 14.3424 11.5558C14.2116 11.3727 14.1418 11.1531 14.1429 10.9282V9.41958C12.9429 9.30815 12 8.29672 12 7.07101V4.07101C12 2.76815 13.0543 1.71387 14.3571 1.71387H19.9286C21.2314 1.71387 22.2857 2.76815 22.2857 4.07101V7.07101C22.2857 8.37387 21.2314 9.42815 19.9286 9.42815H17.6829L16.0714 11.571C15.8657 11.8453 15.5486 11.9996 15.2143 11.9996Z" fill="url(#paint3_linear_215_1846)"/>
<defs>
<linearGradient id="paint0_linear_215_1846" x1="4.77258" y1="16.3407" x2="7.10658" y2="23.3299" gradientUnits="userSpaceOnUse">
<stop offset="0.125" stop-color="#9C6CFE"/>
<stop offset="1" stop-color="#7A41DC"/>
</linearGradient>
<linearGradient id="paint1_linear_215_1846" x1="1.71446" y1="15.4287" x2="7.40864" y2="26.1064" gradientUnits="userSpaceOnUse">
<stop stop-color="#00FFE0"/>
<stop offset="1" stop-color="#6386FF"/>
</linearGradient>
<linearGradient id="paint2_linear_215_1846" x1="4.5" y1="6.85742" x2="11.7857" y2="14.1431" gradientUnits="userSpaceOnUse">
<stop stop-color="#00FFE0"/>
<stop offset="1" stop-color="#6386FF"/>
</linearGradient>
<linearGradient id="paint3_linear_215_1846" x1="12" y1="1.71387" x2="22.2857" y2="11.9996" gradientUnits="userSpaceOnUse">
<stop stop-color="#FF7474"/>
<stop offset="1" stop-color="#FFD600"/>
</linearGradient>
</defs>
</svg>
