<svg width="24" height="24" viewBox="0 0 24 24" fill="none" xmlns="http://www.w3.org/2000/svg">
<path d="M12 6.56948C12.9836 7.35845 13.6936 8.43725 14.0292 9.65267C14.3649 10.8681 14.3091 12.1584 13.8697 13.3403C13.4304 14.5222 12.6299 15.5357 11.5819 16.2368C10.5338 16.9379 9.29157 17.291 8.03146 17.246C6.77135 17.2009 5.55744 16.7601 4.56212 15.9859C3.5668 15.2118 2.84066 14.1438 2.48681 12.9336C2.13295 11.7233 2.16937 10.4324 2.59089 9.24399C3.01242 8.05562 3.79762 7.03025 4.83499 6.31348M8.24999 17.2505V23.2505M5.25 20.2505H11.25" stroke="white" stroke-width="1.5" stroke-linecap="round" stroke-linejoin="round"/>
<path d="M12 6.56948C12.9836 7.35845 13.6936 8.43725 14.0292 9.65267C14.3649 10.8681 14.3091 12.1584 13.8697 13.3403C13.4304 14.5222 12.6299 15.5357 11.5819 16.2368C10.5338 16.9379 9.29157 17.291 8.03146 17.246C6.77135 17.2009 5.55744 16.7601 4.56212 15.9859C3.5668 15.2118 2.84066 14.1438 2.48681 12.9336C2.13295 11.7233 2.16937 10.4324 2.59089 9.24399C3.01242 8.05562 3.79762 7.03025 4.83499 6.31348M8.24999 17.2505V23.2505M5.25 20.2505H11.25" stroke="url(#paint0_linear_210_2213)" stroke-width="1.5" stroke-linecap="round" stroke-linejoin="round"/>
<path d="M9.634 13.824C8.73417 13.0655 8.07726 12.0592 7.74503 10.9302C7.41281 9.80117 7.41993 8.59941 7.76552 7.47444C8.11111 6.34947 8.77991 5.35097 9.68867 4.60321C10.5974 3.85545 11.706 3.39145 12.8765 3.26896C14.047 3.14646 15.2276 3.37089 16.2715 3.91431C17.3154 4.45772 18.1764 5.29612 18.7474 6.32517C19.3184 7.35422 19.5742 8.52847 19.4829 9.70178C19.3916 10.8751 18.9573 11.9957 18.234 12.924M17.743 4.992L21.75 0.75M21.75 0.75H18M21.75 0.75V4.5" stroke="url(#paint1_linear_210_2213)" stroke-width="1.5" stroke-linecap="round" stroke-linejoin="round"/>
<defs>
<linearGradient id="paint0_linear_210_2213" x1="2.2457" y1="6.31348" x2="18.2246" y2="17.6346" gradientUnits="userSpaceOnUse">
<stop stop-color="#FF00B8"/>
<stop offset="1" stop-color="#B70000"/>
</linearGradient>
<linearGradient id="paint1_linear_210_2213" x1="5.25" y1="0.75" x2="24.481" y2="17.0224" gradientUnits="userSpaceOnUse">
<stop stop-color="#0094FF"/>
<stop offset="1" stop-color="#00E0FF"/>
</linearGradient>
</defs>
</svg>
