<svg width="24" height="24" viewBox="0 0 24 24" fill="none" xmlns="http://www.w3.org/2000/svg">
<path d="M7.09221 2.01074C6.09133 2.14075 5.18379 3.31481 5.18379 4.83506C5.18379 5.67282 5.47382 6.41378 5.89891 6.92604L6.40608 7.53699L5.62576 7.68366C5.07319 7.78753 4.66806 8.07945 4.32174 8.55475C3.97542 9.03008 3.71066 9.69235 3.5251 10.4555C3.22655 11.6843 3.13495 13.1544 3.11002 14.5109C3.10492 14.7885 3.32979 15.0147 3.60747 15.0147H4.93976L5.38892 21.0375C5.42163 21.476 5.73643 21.8475 6.17216 21.9068C6.97805 22.0167 7.80119 22.0147 8.58969 21.9084C9.02882 21.8492 9.3449 21.4732 9.37407 21.0311L9.77097 15.0147H11.0189C11.2952 15.0147 11.5194 14.7907 11.5179 14.5144C11.5105 13.1382 11.4656 11.6446 11.1945 10.4035C11.0266 9.63538 10.7722 8.9741 10.4217 8.50416C10.0711 8.03426 9.64726 7.74405 9.02688 7.64793L8.2305 7.52457L8.73321 6.89472C9.13993 6.38512 9.41565 5.65264 9.41565 4.83514C9.41565 3.21436 8.4024 2.01473 7.29966 2.01473L7.09221 2.01074Z" fill="#000428"/>
<path d="M7.09221 2.01074C6.09133 2.14075 5.18379 3.31481 5.18379 4.83506C5.18379 5.67282 5.47382 6.41378 5.89891 6.92604L6.40608 7.53699L5.62576 7.68366C5.07319 7.78753 4.66806 8.07945 4.32174 8.55475C3.97542 9.03008 3.71066 9.69235 3.5251 10.4555C3.22655 11.6843 3.13495 13.1544 3.11002 14.5109C3.10492 14.7885 3.32979 15.0147 3.60747 15.0147H4.93976L5.38892 21.0375C5.42163 21.476 5.73643 21.8475 6.17216 21.9068C6.97805 22.0167 7.80119 22.0147 8.58969 21.9084C9.02882 21.8492 9.3449 21.4732 9.37407 21.0311L9.77097 15.0147H11.0189C11.2952 15.0147 11.5194 14.7907 11.5179 14.5144C11.5105 13.1382 11.4656 11.6446 11.1945 10.4035C11.0266 9.63538 10.7722 8.9741 10.4217 8.50416C10.0711 8.03426 9.64726 7.74405 9.02688 7.64793L8.2305 7.52457L8.73321 6.89472C9.13993 6.38512 9.41565 5.65264 9.41565 4.83514C9.41565 3.21436 8.4024 2.01473 7.29966 2.01473L7.09221 2.01074Z" fill="url(#paint0_linear_433_25604)"/>
<path d="M18.1842 2.70704C17.7937 2.31655 17.1605 2.31655 16.77 2.70705L14.7357 4.74126C14.4346 5.04239 14.4345 5.53062 14.7357 5.83175C15.0368 6.13288 15.525 6.13288 15.8262 5.83175L16.7061 4.95183V19.0482L15.8262 18.1682C15.525 17.8671 15.0368 17.8671 14.7357 18.1682C14.4345 18.4693 14.4346 18.9576 14.7357 19.2587L16.77 21.2929C17.1605 21.6834 17.7937 21.6834 18.1842 21.2929L20.2185 19.2587C20.5197 18.9576 20.5197 18.4693 20.2185 18.1682C19.9174 17.8671 19.4292 17.8671 19.128 18.1682L18.2481 19.0482V4.95183L19.128 5.83176C19.4292 6.13291 19.9174 6.13291 20.2185 5.83177C20.5197 5.53063 20.5197 5.04238 20.2185 4.74125L18.1842 2.70704Z" fill="url(#paint1_linear_433_25604)"/>
<path d="M18.1842 2.70704C17.7937 2.31655 17.1605 2.31655 16.77 2.70705L14.7357 4.74126C14.4346 5.04239 14.4345 5.53062 14.7357 5.83175C15.0368 6.13288 15.525 6.13288 15.8262 5.83175L16.7061 4.95183V19.0482L15.8262 18.1682C15.525 17.8671 15.0368 17.8671 14.7357 18.1682C14.4345 18.4693 14.4346 18.9576 14.7357 19.2587L16.77 21.2929C17.1605 21.6834 17.7937 21.6834 18.1842 21.2929L20.2185 19.2587C20.5197 18.9576 20.5197 18.4693 20.2185 18.1682C19.9174 17.8671 19.4292 17.8671 19.128 18.1682L18.2481 19.0482V4.95183L19.128 5.83176C19.4292 6.13291 19.9174 6.13291 20.2185 5.83177C20.5197 5.53063 20.5197 5.04238 20.2185 4.74125L18.1842 2.70704Z" fill="url(#paint2_linear_433_25604)"/>
<defs>
<linearGradient id="paint0_linear_433_25604" x1="7.31141" y1="21.9887" x2="7.31142" y2="2.01074" gradientUnits="userSpaceOnUse">
<stop stop-color="#FF9E1B"/>
<stop offset="1" stop-color="#FFCF54"/>
</linearGradient>
<linearGradient id="paint1_linear_433_25604" x1="17.4771" y1="22" x2="17.4771" y2="2" gradientUnits="userSpaceOnUse">
<stop stop-color="#FEDD2C"/>
<stop offset="1" stop-color="#F6F50A"/>
</linearGradient>
<linearGradient id="paint2_linear_433_25604" x1="14.1904" y1="2" x2="26.0555" y2="5.89968" gradientUnits="userSpaceOnUse">
<stop stop-color="#FF7474"/>
<stop offset="1" stop-color="#FFD600"/>
</linearGradient>
</defs>
</svg>
