<svg width="24" height="24" viewBox="0 0 24 24" fill="none" xmlns="http://www.w3.org/2000/svg">
<path d="M12 22C17.523 22 22 17.523 22 12C22 6.477 17.523 2 12 2C6.477 2 2 6.477 2 12C2 17.523 6.477 22 12 22Z" fill="url(#paint0_linear_215_2015)"/>
<path fill-rule="evenodd" clip-rule="evenodd" d="M9.115 2.42201C8.77589 2.96043 8.49116 3.53124 8.265 4.12601C7.785 5.35601 7.427 6.84901 7.216 8.50001H2.63C2.44933 8.98334 2.306 9.48334 2.2 10H7.07C6.95531 11.6661 6.98475 13.339 7.158 15H2.458C2.622 15.52 2.82533 16.02 3.068 16.5H7.365C7.58 17.755 7.885 18.897 8.265 19.874C8.511 20.504 8.795 21.079 9.115 21.578C10.0509 21.8589 11.0229 22.001 12 22C12.9771 22.001 13.9491 21.8589 14.885 21.578C15.2241 21.0396 15.5088 20.4688 15.735 19.874C16.115 18.897 16.42 17.755 16.635 16.5H20.933C21.1757 16.02 21.379 15.52 21.543 15H16.843C17.0162 13.339 17.0457 11.6661 16.931 10H21.801C21.697 9.48957 21.5532 8.98804 21.371 8.50001H16.784C16.574 6.84901 16.214 5.35601 15.734 4.12601C15.5082 3.53128 15.2238 2.96047 14.885 2.42201C13.9491 2.14114 12.9771 1.99897 12 2.00001C11.0229 1.99897 10.0509 2.14114 9.115 2.42201ZM8.73 8.50001C8.93 7.03001 9.252 5.72601 9.664 4.67101C10.024 3.75101 10.434 3.05901 10.858 2.60901C11.278 2.16301 11.663 2.00001 12 2.00001C12.337 2.00001 12.723 2.16301 13.143 2.60901C13.566 3.05901 13.978 3.75101 14.337 4.67101C14.749 5.72601 15.071 7.03101 15.271 8.50001H8.73ZM12 22C12.338 22 12.723 21.837 13.143 21.391C13.566 20.941 13.978 20.249 14.337 19.329C14.653 18.519 14.917 17.564 15.112 16.5H8.888C9.084 17.564 9.348 18.52 9.663 19.329C10.023 20.249 10.433 20.941 10.857 21.391C11.277 21.837 11.662 22 12 22ZM8.5 12C8.5 13.048 8.558 14.055 8.666 15H15.334C15.5199 13.3398 15.5514 11.666 15.428 10H8.573C8.52396 10.6655 8.49961 11.3327 8.5 12Z" fill="url(#paint1_radial_215_2015)"/>
<defs>
<linearGradient id="paint0_linear_215_2015" x1="6.444" y1="5.333" x2="20.889" y2="18.667" gradientUnits="userSpaceOnUse">
<stop stop-color="#29C3FF"/>
<stop offset="1" stop-color="#2052CB"/>
</linearGradient>
<radialGradient id="paint1_radial_215_2015" cx="0" cy="0" r="1" gradientUnits="userSpaceOnUse" gradientTransform="translate(18.3239 17.0028) rotate(-135.338) scale(16.0089 16.0078)">
<stop stop-color="#25A2F0"/>
<stop offset="0.974" stop-color="#3BD5FF"/>
</radialGradient>
</defs>
</svg>
