<svg width="120" height="120" viewBox="0 0 120 120" fill="none" xmlns="http://www.w3.org/2000/svg">
<path d="M88.5952 47.347C85.5235 50.2381 83.8833 54.1315 87.4073 57.1547C87.8049 57.4934 88.2622 57.8128 88.5505 58.1818C88.8338 58.5535 88.9183 58.9968 88.5555 59.3465C87.9739 59.9054 86.5872 59.9715 85.4241 59.9715C79.2757 59.9742 73.1272 59.977 66.9788 59.977V59.999H51.1628V59.977C45.6357 59.977 40.1036 59.9742 34.5764 59.9715C33.4084 59.9715 32.0216 59.9054 31.4401 59.3465C31.0772 58.9968 31.1617 58.5535 31.45 58.1818C31.7333 57.8128 32.1956 57.4934 32.5882 57.1547C36.1123 54.1315 34.472 50.2381 31.4003 47.347C29.5662 45.6179 27.7222 44.0787 27.1406 42.0632C26.5541 40.0229 27.8663 37.6825 29.8843 35.9947C30.5603 35.433 31.3456 34.9098 31.9371 34.3178C33.8806 32.3767 33.4034 30.1381 34.646 28.0731C35.0138 27.4673 35.5208 26.8643 36.1769 26.3191C37.0964 25.5482 38.2943 24.8818 39.7656 24.4551C41.8382 23.8551 44.2156 23.9713 46.4175 24.2543C48.19 24.4823 49.537 25.1531 51.3035 25.3455C52.5466 25.481 53.9318 25.4069 55.2242 25.4039C57.7039 25.3981 60.1842 25.3926 62.6639 25.3868C64.666 25.3821 66.9703 25.5727 68.8536 25.1558C72.2942 24.3945 76.6075 23.4052 80.2295 24.4551C81.7007 24.8818 82.9036 25.5482 83.8231 26.3191C84.4743 26.8643 84.9862 27.4673 85.349 28.0731C86.5917 30.1381 86.1195 32.3767 88.0629 34.3178C88.6544 34.9098 89.4348 35.433 90.1107 35.9947C92.1337 37.6825 93.4459 40.0229 92.8594 42.0632C92.2783 44.0787 90.4293 45.6179 88.5952 47.347Z" fill="#9B3429"/>
<path d="M100.415 104.352V104.358C100.409 104.358 100.404 104.363 100.399 104.369C96.8701 107.585 92.9591 110.38 88.7411 112.681C87.3836 113.419 85.9937 114.114 84.5769 114.744C77.0782 118.127 68.7552 120.002 60.0066 120.002C51.6352 120.002 43.6678 118.289 36.4222 115.191C36.336 115.153 36.2552 115.116 36.169 115.078C35.9158 114.97 35.668 114.862 35.4202 114.744C34.6552 114.399 33.8957 114.044 33.1523 113.667C28.207 111.194 23.6549 108.043 19.6093 104.358L23.0462 97.5216C24.4091 94.8173 26.3323 92.447 28.6864 90.5723C29.4083 90.0013 30.1678 89.4734 30.9651 88.9993C31.116 88.9078 31.2722 88.8162 31.4284 88.73C33.5832 87.464 36.0074 86.2304 38.0814 85.6055C38.0922 85.6001 38.103 85.5947 38.1083 85.6001C38.4962 85.5031 38.8895 85.4062 39.2881 85.3092C39.2935 85.3038 39.2989 85.3038 39.3043 85.3038C39.315 85.3038 39.3258 85.2984 39.3366 85.2984C39.8106 85.1799 40.2901 85.0668 40.7749 84.9537C40.7803 84.9537 40.7803 84.9537 40.7803 84.9537C41.0874 84.8783 41.4052 84.8028 41.7176 84.7328C47.8858 83.3268 54.6465 82.1416 59.9905 82.1309H60.0174C65.3613 82.1416 72.1221 83.3268 78.2795 84.7328C78.6027 84.8082 78.9259 84.8836 79.2437 84.9537C79.2707 84.9644 79.2976 84.9698 79.3246 84.9806C79.7501 85.0722 80.1703 85.1799 80.5851 85.2769C80.5959 85.2823 80.6013 85.2823 80.6121 85.2823C81.0807 85.4008 81.544 85.5085 81.9965 85.627C82.0073 85.6217 82.0235 85.6271 82.0396 85.6378C84.2483 86.3166 86.8341 87.6741 89.0697 89.0047C92.4689 91.0249 95.2055 93.9931 96.9833 97.5216L100.415 104.352Z" fill="#3760E4"/>
<path d="M36.3251 114.286L36.1689 115.077C35.9157 114.97 35.6679 114.862 35.4201 114.743C34.6551 114.399 33.8955 114.043 33.1521 113.666C28.2068 111.193 23.6548 108.042 19.6091 104.357L23.0461 97.5211C24.409 94.8168 26.3322 92.4465 28.6863 90.5719C29.4081 90.0008 30.1677 89.4729 30.965 88.9988C31.1158 88.9073 31.2721 88.8157 31.4283 88.7295C33.5185 90.9274 39.3634 98.6793 36.3251 114.286Z" fill="#245AA8"/>
<path d="M33.1521 113.666C28.2068 111.193 23.6548 108.041 19.6091 104.357L23.0461 97.5206C24.409 94.8163 26.3322 92.446 28.6863 90.5713C28.6863 90.5713 36.4113 96.9118 33.1521 113.666Z" fill="#FEFEF1"/>
<path d="M83.6987 114.286L83.8549 115.077C84.1081 114.97 84.3559 114.862 84.6037 114.743C85.3687 114.399 86.1282 114.043 86.8716 113.666C91.8169 111.193 96.369 108.042 100.415 104.357L96.9777 97.5211C95.6148 94.8168 93.6916 92.4465 91.3375 90.5719C90.6156 90.0008 89.8561 89.4729 89.0588 88.9988C88.9079 88.9073 88.7517 88.8157 88.5955 88.7295C86.5053 90.9274 80.6604 98.6793 83.6987 114.286Z" fill="#245AA8"/>
<path d="M86.8715 113.666C91.8168 111.193 96.3689 108.041 100.415 104.357L96.9776 97.5206C95.6147 94.8163 93.6915 92.446 91.3374 90.5713C91.3374 90.5713 83.6124 96.9118 86.8715 113.666Z" fill="#FEFEF1"/>
<path d="M40.7748 84.9531C40.4192 85.0716 39.9398 85.1848 39.3364 85.2979C39.8105 85.1794 40.2899 85.0663 40.7748 84.9531Z" fill="#C5E4F7"/>
<path d="M80.585 85.2767C80.0679 85.1798 79.6531 85.0828 79.3245 84.9805C79.75 85.072 80.1702 85.1798 80.585 85.2767Z" fill="#C5E4F7"/>
<path d="M60.0028 112.018C57.2883 112.018 54.8351 110.743 53.4393 108.607L44.8362 95.4427L75.1668 95.4346L66.5659 108.606C65.1712 110.742 62.7179 112.018 60.0028 112.018Z" fill="#245AA8"/>
<path d="M56.9663 106.669L50.6963 97.0742H69.3036L63.0391 106.668C61.6648 108.773 58.341 108.773 56.9663 106.669Z" fill="#E0E0D5"/>
<path d="M71.7569 84.2999V64.7412H48.2436V84.3021C48.2436 84.3139 48.243 84.3258 48.243 84.3376C48.243 92.3837 53.5067 98.9063 60.0002 98.9063C66.4938 98.9063 71.7574 92.3837 71.7574 84.3376C71.7574 84.3252 71.7569 84.3129 71.7569 84.2999Z" fill="#FCD8D8"/>
<path d="M70.0302 66.8301H48.2434V74.1058C51.7687 79.6959 54.5937 80.6721 58.8376 81.5335C60.5991 81.8922 63.012 82.0474 65.2756 82.1045C67.9196 82.1707 70.0307 84.8578 70.0307 88.1353C70.0307 92.2617 68.6452 95.988 66.4209 98.6362C69.6332 96.0364 71.7573 91.5361 71.7573 86.4292V82.0533V66.8301H70.0302Z" fill="#F4BDC5"/>
<path d="M71.7574 83.2404L60.0029 98.8973C60.0029 98.8973 69.8267 100.375 72.9792 110.075C72.9792 110.075 74.1342 88.7724 80.6945 85.3032L77.2215 78.2693C77.0809 77.8976 76.7765 77.5975 76.3828 77.4413L71.758 75.6113V83.2404H71.7574Z" fill="#FEFEF1"/>
<path opacity="0.5" d="M71.7574 83.2409L75.308 79.3348C75.6178 78.9943 75.4912 78.4772 75.0532 78.2902L71.758 76.8848V83.2409H71.7574Z" fill="#4D1F5A"/>
<path d="M48.2435 83.2404L59.998 98.8973C59.998 98.8973 50.1742 100.375 47.0217 110.075C47.0217 110.075 45.8667 88.7724 39.3064 85.3032L42.7794 78.2693C42.92 77.8976 43.2244 77.5975 43.6182 77.4413L48.2429 75.6113L48.2435 83.2404Z" fill="#FEFEF1"/>
<path opacity="0.5" d="M48.2435 83.2409L44.693 79.3348C44.3832 78.9943 44.5098 78.4772 44.9478 78.2902L48.243 76.8848L48.2435 83.2409Z" fill="#4D1F5A"/>
<path d="M38.8094 64.719C43.1624 64.719 46.6912 60.7689 46.6912 55.8961C46.6912 51.0234 43.1624 47.0732 38.8094 47.0732C34.4564 47.0732 30.9276 51.0234 30.9276 55.8961C30.9276 60.7689 34.4564 64.719 38.8094 64.719Z" fill="#FFDBD9"/>
<path d="M38.8094 62.0114C35.8826 62.0114 33.501 59.2684 33.501 55.8961C33.501 52.5243 35.882 49.7812 38.8094 49.7812C41.7367 49.7812 44.1177 52.5243 44.1177 55.8961C44.1177 59.2684 41.7361 62.0114 38.8094 62.0114Z" fill="#F4BDC5"/>
<path d="M81.1907 64.719C85.5437 64.719 89.0725 60.7689 89.0725 55.8961C89.0725 51.0234 85.5437 47.0732 81.1907 47.0732C76.8377 47.0732 73.309 51.0234 73.309 55.8961C73.309 60.7689 76.8377 64.719 81.1907 64.719Z" fill="#FFDBD9"/>
<path d="M81.1907 62.0114C78.2639 62.0114 75.8823 59.2684 75.8823 55.8961C75.8823 52.5243 78.2634 49.7812 81.1907 49.7812C84.118 49.7812 86.4991 52.5243 86.4991 55.8961C86.4986 59.2684 84.1175 62.0114 81.1907 62.0114Z" fill="#F4BDC5"/>
<path d="M68.7742 20.7427C75.6475 20.7427 81.2198 26.6151 81.2198 33.8596V53.1123H81.1891C80.9375 64.0303 77.541 68.6771 72.4282 73.4807C70.4781 75.3156 66.8305 78.2014 63.9883 79.2529C61.3988 80.2108 58.583 80.208 55.9945 79.2475C53.1367 78.1874 49.4633 75.2854 47.5061 73.4317C42.424 68.6173 39.048 63.9925 38.7964 53.1123C38.7861 52.6738 38.7808 52.224 38.7808 51.7694V33.8591C38.7808 26.6151 44.3526 20.7422 51.2259 20.7422L68.7742 20.7427Z" fill="#FFDBD9"/>
<path d="M84.6853 44.1154C84.8722 44.0556 85.0398 43.9824 85.1734 43.8951C85.6657 43.5746 85.8904 43.0407 85.9857 42.481C86.2373 41.0131 85.8247 39.4627 85.7299 37.9963C85.6453 36.6819 85.6878 35.062 86.963 34.3078C87.9116 33.747 89.1285 33.7589 90.137 33.2875C91.3857 32.7041 92.698 31.7323 93.3972 30.5207C91.3173 30.8515 89.3031 30.5223 87.5065 29.3749C84.5673 27.4975 83.5664 24.24 81.7499 21.4549C78.2796 16.1325 72.2967 13.2558 66.2094 12.1105C66.1528 12.0997 66.0968 12.0895 66.0402 12.0793C62.8958 11.4991 59.676 11.1969 56.4782 11.3466C55.0475 11.4134 53.5908 11.5179 52.1961 11.8633C50.7852 12.2123 49.0425 12.7909 47.8967 13.7099C47.0569 14.3833 46.405 15.2636 45.8491 16.1853C46.3576 14.804 47.2152 13.5526 48.3212 12.5808C47.0795 12.9918 46.0807 13.9556 45.3772 15.0588C44.7038 16.1147 44.1532 17.3176 43.8257 18.5529C43.4809 19.8544 43.356 22.1961 43.356 22.1961C43.3673 21.972 42.4827 21.8487 42.3346 21.8185C41.7582 21.7011 41.1764 21.6854 40.5886 21.7248C39.7747 21.7792 38.9688 21.9478 38.2011 22.2236C37.4205 22.5043 36.7315 22.9853 35.9515 23.2585C36.8845 22.9325 37.8827 22.7957 38.8691 22.8587C38.471 22.8334 37.9215 23.1836 37.6236 23.4147C37.3047 23.6619 36.9605 23.8855 36.6319 24.1317C35.8933 24.686 35.2646 25.3809 34.8148 26.1895C33.2391 29.022 33.5074 32.3238 34.2653 35.3556C34.6667 36.9609 35.1898 38.5512 35.3158 40.2109C35.4489 41.9612 35.193 42.3097 35.1402 44.0589C35.1343 44.2614 37.6538 45.0706 37.8116 45.0706V39.8581C37.8116 31.5561 44.4533 24.8255 52.647 24.8255H67.3633C71.8755 24.8255 76.2153 26.9604 79.0117 30.5482C80.575 32.5543 81.5167 34.978 81.9417 37.4727C82.175 38.8421 82.2552 40.2357 82.162 41.6223C82.1157 42.3167 81.5495 43.7529 82.4061 44.13C82.9415 44.3643 83.9624 44.3455 84.6853 44.1154Z" fill="#9B3429"/>
<path d="M39.9983 62.0109L39.0205 44.0586H36.4929L37.3969 56.9778C38.2459 61.7836 39.9983 62.0109 39.9983 62.0109Z" fill="#9B3429"/>
<path d="M79.955 62.0109L80.9327 44.0586H83.4603L82.5564 56.9778C81.7079 61.7836 79.955 62.0109 79.955 62.0109Z" fill="#9B3429"/>
<path d="M52.5522 33.4564C53.2913 33.4564 54.0304 33.4564 54.769 33.4564C55.7144 33.4564 56.6652 33.4278 57.6101 33.4564C58.7172 33.4898 60.1361 34.5742 60.5347 35.6058C60.6473 35.8973 60.6651 36.2167 60.6538 36.5292C60.559 39.1031 58.8745 41.4992 59.6928 44.1206C59.7698 44.3668 59.8673 44.6065 59.9761 44.8403C60.6705 46.34 61.8767 47.6717 63.4491 48.1808C65.062 48.7028 66.8203 48.3117 68.4338 47.7924C67.9317 47.8371 67.4296 47.8818 66.927 47.9265C66.0909 48.0009 65.2274 48.0725 64.429 47.8134C63.9151 47.6464 63.4545 47.3501 63.0004 47.057C63.9895 47.5263 65.1159 47.6458 66.2084 47.5704C67.505 47.4815 68.7554 47.0473 70.0655 47.1993C71.472 47.3625 72.7973 47.9971 74.0007 48.7136C75.5543 49.638 77.046 50.7461 78.0577 52.2442C79.53 54.4233 79.8284 57.1626 80.0848 59.7796C80.0202 59.117 80.7065 57.8871 80.8816 57.2132C82.2316 52.0212 83.2804 46.5566 83.1867 41.1205C83.0989 36.0131 82.2143 29.5847 78.3281 25.921C73.6236 21.4859 66.6323 20.6875 60.6387 20.6875C37.3349 20.6875 37.1787 36.7522 37.1787 36.7522C37.4443 38.6139 37.7093 40.4757 37.9749 42.338C37.9749 43.0733 38.2459 43.8652 38.3412 44.5952C38.4474 45.4027 38.4436 46.1703 38.3461 46.9779C38.2674 47.6313 38.1624 48.274 38.1899 48.935C38.2163 49.569 38.6682 50.1465 38.9818 50.6787C39.0356 50.7703 39.125 50.8759 39.2258 50.8414C39.2931 49.9892 39.4343 49.1478 39.5172 48.2988C39.5937 47.5133 39.8868 46.7484 40.1163 45.9856C40.2558 45.5207 40.3964 45.0547 40.5898 44.6097C41.1139 43.4062 41.9904 42.5034 43.0716 41.7874C44.1296 41.0871 45.0977 40.4972 45.52 39.2081C45.4236 40.3642 44.7324 41.454 43.7277 42.0342C44.8542 41.8688 45.7549 40.9444 46.195 39.8944C46.6351 38.8445 46.6911 37.6782 46.7068 36.5394C46.717 35.7965 46.7326 34.9917 47.1905 34.4061C47.9205 33.4731 49.1579 33.4559 50.231 33.4559C51.0051 33.4564 51.7787 33.4564 52.5522 33.4564Z" fill="#9B3429"/>
<path d="M66.9837 44.0711C68.4678 43.8955 69.9982 44.0237 71.4145 44.4208C72.1277 44.6206 72.8194 44.8954 73.5014 45.183C74.1048 45.4378 75.3928 46.171 75.3928 46.9979C75.3928 47.4337 74.2955 46.6768 74.0299 46.5653C72.8798 46.0827 71.672 45.7023 70.4271 45.5752C69.1121 45.4411 67.9345 45.6743 66.7084 46.1365C66.0043 46.4016 65.3363 46.8713 64.6047 47.0442C64.1932 47.1439 63.6378 47.0442 63.3426 46.7226C63.1427 46.5055 63.1432 46.2233 63.1696 45.9426C63.2041 45.5854 63.3636 45.2471 63.5742 44.9611C63.662 44.842 63.7584 44.7294 63.8576 44.6195C63.8656 44.751 63.857 44.884 63.8317 45.0133C63.8565 44.8851 64.1064 44.8469 64.2007 44.8059C65.0799 44.4267 66.0221 44.1848 66.9837 44.0711Z" fill="#9B3429"/>
<path d="M62.6081 60.3406L61.7015 61.4557C60.762 62.6112 59.2385 62.6112 58.2985 61.4557L57.3919 60.3406C57.1295 60.0179 57.3154 59.4668 57.686 59.4668H62.314C62.6846 59.4668 62.8705 60.0179 62.6081 60.3406Z" fill="#D88787"/>
<path d="M71.7564 52.0179C71.7564 53.9761 70.6451 55.5636 69.2741 55.5636C67.9031 55.5636 66.7917 53.9761 66.7917 52.0179C66.7917 50.0597 67.9031 48.4727 69.2741 48.4727C70.6451 48.4721 71.7564 50.0597 71.7564 52.0179Z" fill="#9B3429"/>
<path d="M69.2747 54.48C68.6142 54.48 67.8751 53.4268 67.8751 52.0181C67.8751 50.6088 68.6137 49.5557 69.2747 49.5557C69.9351 49.5557 70.6737 50.6088 70.6737 52.0181C70.6731 53.4273 69.9351 54.48 69.2747 54.48Z" fill="#721D17"/>
<path d="M48.2534 52.0179C48.2534 53.9761 49.3648 55.5636 50.7358 55.5636C52.1068 55.5636 53.2181 53.9761 53.2181 52.0179C53.2181 50.0597 52.1068 48.4727 50.7358 48.4727C49.3648 48.4721 48.2534 50.0597 48.2534 52.0179Z" fill="#9B3429"/>
<path d="M50.7357 54.48C50.0752 54.48 49.3367 53.4268 49.3367 52.0181C49.3367 50.6088 50.0752 49.5557 50.7357 49.5557C51.3961 49.5557 52.1347 50.6088 52.1347 52.0181C52.1342 53.4273 51.3961 54.48 50.7357 54.48Z" fill="#721D17"/>
<path d="M52.6535 44.0711C51.1694 43.8955 49.6389 44.0237 48.2227 44.4208C47.5094 44.6206 46.8177 44.8954 46.1363 45.183C45.5329 45.4378 44.2449 46.171 44.2449 46.9979C44.2449 47.4337 45.3422 46.6768 45.6078 46.5653C46.7574 46.0827 47.9657 45.7023 49.2106 45.5752C50.5256 45.4411 51.7032 45.6743 52.9293 46.1365C53.6334 46.4016 54.3014 46.8713 55.033 47.0442C55.4445 47.1439 55.9999 47.0442 56.2951 46.7226C56.495 46.5055 56.4945 46.2233 56.4675 45.9426C56.433 45.5854 56.2736 45.2471 56.063 44.9611C55.9751 44.842 55.8787 44.7294 55.7796 44.6195C55.7715 44.751 55.7801 44.884 55.8054 45.0133C55.7807 44.8851 55.5307 44.8469 55.4364 44.8059C54.5573 44.4267 53.6151 44.1848 52.6535 44.0711Z" fill="#9B3429"/>
<path d="M59.4729 68.8909C55.1671 68.8909 52.2565 66.915 52.2118 66.8837C51.9672 66.7129 51.9068 66.3762 52.0776 66.1306C52.2473 65.886 52.584 65.8241 52.8307 65.9948C53.0947 66.1775 59.3733 70.4047 67.1882 65.4254C67.4393 65.2654 67.7744 65.3387 67.936 65.5914C68.0965 65.8435 68.0222 66.1785 67.7701 66.3391C64.7388 68.2698 61.8869 68.8909 59.4729 68.8909Z" fill="#E17F8E"/>
<g filter="url(#filter0_f_670_3206)">
<path d="M52.5947 58.0091C52.1578 58.9028 50.261 58.8995 48.2533 58.9302C46.2466 58.899 44.3488 58.9022 43.9119 58.0091C43.4556 57.1466 45.3303 55.3624 48.2533 55.3613C51.1763 55.3613 53.0504 57.1444 52.5947 58.0091Z" fill="#E17F8E"/>
</g>
<g filter="url(#filter1_f_670_3206)">
<path d="M76.0979 58.0091C75.661 58.9022 73.7637 58.899 71.7565 58.9297C69.7498 58.8995 67.8519 58.9017 67.415 58.0091C66.9593 57.1455 68.8329 55.3624 71.7565 55.3613C74.68 55.3613 76.5542 57.145 76.0979 58.0091Z" fill="#E17F8E"/>
</g>
<defs>
<filter id="filter0_f_670_3206" x="33.8436" y="45.3613" width="28.8192" height="23.5693" filterUnits="userSpaceOnUse" color-interpolation-filters="sRGB">
<feFlood flood-opacity="0" result="BackgroundImageFix"/>
<feBlend mode="normal" in="SourceGraphic" in2="BackgroundImageFix" result="shape"/>
<feGaussianBlur stdDeviation="5" result="effect1_foregroundBlur_670_3206"/>
</filter>
<filter id="filter1_f_670_3206" x="57.3469" y="45.3613" width="28.8192" height="23.5684" filterUnits="userSpaceOnUse" color-interpolation-filters="sRGB">
<feFlood flood-opacity="0" result="BackgroundImageFix"/>
<feBlend mode="normal" in="SourceGraphic" in2="BackgroundImageFix" result="shape"/>
<feGaussianBlur stdDeviation="5" result="effect1_foregroundBlur_670_3206"/>
</filter>
</defs>
</svg>
