<svg width="120" height="120" viewBox="0 0 120 120" fill="none" xmlns="http://www.w3.org/2000/svg">
<g opacity="0.4" clip-path="url(#clip0_1042_8639)">
<path d="M97.8 66.6C97.8 77.25 93.45 86.85 86.475 93.75C79.65 100.575 70.2 104.7 59.775 104.7C49.425 104.7 39.975 100.5 33.075 93.75C26.1 86.85 21.75 77.25 21.75 66.6C21.75 45.525 38.775 28.5 59.775 28.5C80.775 28.5 97.8 45.6 97.8 66.6Z" fill="#F5F6FA"/>
<g filter="url(#filter0_dd_1042_8639)">
<path d="M86.8721 49.1332L87.4721 97.4332C87.4721 99.0832 86.1221 100.358 84.4721 100.358H37.3721C35.7221 100.358 34.3721 99.0082 34.3721 97.4332V35.3332C34.3721 33.6832 35.7221 32.4082 37.3721 32.4082H71.4971L86.8721 49.1332Z" fill="white"/>
</g>
<path d="M58.8967 42.533H42.3217C41.7967 42.533 41.3467 42.083 41.3467 41.558C41.3467 41.033 41.7967 40.583 42.3217 40.583H58.8967C59.4217 40.583 59.8717 41.033 59.8717 41.558C59.8717 42.083 59.4217 42.533 58.8967 42.533Z" fill="#D5DAE5"/>
<path d="M51.0217 47.9334H42.3217C41.7967 47.9334 41.3467 47.4834 41.3467 46.9584C41.3467 46.4334 41.7967 45.9834 42.3217 45.9834H50.9467C51.4717 45.9834 51.9217 46.4334 51.9217 46.9584C51.9217 47.4834 51.4717 47.9334 51.0217 47.9334Z" fill="#D5DAE5"/>
<path d="M71.4971 32.4082V45.7582C71.4971 47.6332 73.1471 49.1332 75.0221 49.1332H86.8721" fill="#D5DAE5"/>
<path d="M51.9593 27.949L49.123 23.6797" stroke="#989FB0" stroke-width="1.5" stroke-linecap="round"/>
<path d="M59.5242 25.8146L59.8574 15" stroke="#989FB0" stroke-width="1.5" stroke-linecap="round"/>
<path d="M66.3045 28.0501L70.832 18.2231" stroke="#989FB0" stroke-width="1.5" stroke-linecap="round"/>
<path d="M50.9038 73.0339C50.5888 73.0339 50.3367 72.9079 50.0847 72.7188C49.6436 72.2778 49.6436 71.5217 50.0847 71.0806C52.9831 68.2452 56.8267 66.6699 60.9224 66.6699C65.018 66.6699 68.8616 68.2452 71.76 71.0806C72.2011 71.5217 72.2011 72.2778 71.76 72.7188C71.3189 73.1599 70.5628 73.1599 70.1218 72.7188C67.6644 70.2615 64.3879 68.9383 60.9224 68.9383C57.4568 68.9383 54.1803 70.2615 51.723 72.7188C51.4709 72.9079 51.2189 73.0339 50.9038 73.0339Z" fill="#989FB0"/>
<path d="M54.8734 56.1473L56.3857 54.6351C56.8267 54.194 56.8267 53.4379 56.3857 52.9968C55.9446 52.5557 55.1885 52.5557 54.7474 52.9968L53.2352 54.509L51.723 52.9968C51.2819 52.5557 50.5258 52.5557 50.0847 52.9968C49.6436 53.4379 49.6436 54.194 50.0847 54.6351L51.5969 56.1473L50.0847 57.6595C49.6436 58.1006 49.6436 58.8567 50.0847 59.2978C50.3367 59.5498 50.5888 59.6128 50.9038 59.6128C51.2189 59.6128 51.4709 59.4868 51.723 59.2978L53.2352 57.7855L54.7474 59.2978C54.9995 59.5498 55.2515 59.6128 55.5665 59.6128C55.8816 59.6128 56.1336 59.4868 56.3857 59.2978C56.8267 58.8567 56.8267 58.1006 56.3857 57.6595L54.8734 56.1473Z" fill="#989FB0"/>
<path d="M70.184 56.1473L71.6962 54.6351C72.1373 54.194 72.1373 53.4379 71.6962 52.9968C71.2551 52.5557 70.499 52.5557 70.058 52.9968L68.5457 54.509L67.0335 52.9968C66.5924 52.5557 65.8363 52.5557 65.3953 52.9968C64.9542 53.4379 64.9542 54.194 65.3953 54.6351L66.9075 56.1473L65.3953 57.6595C64.9542 58.1006 64.9542 58.8567 65.3953 59.2978C65.6473 59.5498 65.8993 59.6128 66.2144 59.6128C66.5294 59.6128 66.7815 59.4868 67.0335 59.2978L68.5457 57.7855L70.058 59.2978C70.31 59.5498 70.562 59.6128 70.8771 59.6128C71.1921 59.6128 71.4442 59.4868 71.6962 59.2978C72.1373 58.8567 72.1373 58.1006 71.6962 57.6595L70.184 56.1473Z" fill="#989FB0"/>
<path d="M44.5117 82.2732H46.0745L47.6298 84.7034V82.2732H49.3272V87.5H47.7644L46.2091 85.0623V87.5H44.5117V82.2732ZM52.5415 87.6122C52.0081 87.6122 51.5246 87.4975 51.0909 87.2682C50.6622 87.0389 50.3232 86.7199 50.074 86.3111C49.8247 85.8973 49.7001 85.4238 49.7001 84.8904C49.7001 84.357 49.8247 83.8834 50.074 83.4696C50.3232 83.0559 50.6622 82.7344 51.0909 82.505C51.5246 82.2757 52.0081 82.1611 52.5415 82.1611C53.0699 82.1611 53.5485 82.2757 53.9772 82.505C54.4109 82.7344 54.7524 83.0559 55.0016 83.4696C55.2509 83.8834 55.3755 84.357 55.3755 84.8904C55.3755 85.4238 55.2509 85.8973 55.0016 86.3111C54.7524 86.7199 54.4109 87.0389 53.9772 87.2682C53.5485 87.4975 53.0699 87.6122 52.5415 87.6122ZM52.5415 85.9447C52.8406 85.9447 53.0874 85.85 53.2818 85.6605C53.4762 85.4711 53.5734 85.2144 53.5734 84.8904C53.5734 84.5663 53.4762 84.3096 53.2818 84.1202C53.0874 83.9308 52.8406 83.836 52.5415 83.836C52.2374 83.836 51.9882 83.9308 51.7938 84.1202C51.5994 84.3096 51.5022 84.5663 51.5022 84.8904C51.5022 85.2144 51.5994 85.4711 51.7938 85.6605C51.9932 85.85 52.2424 85.9447 52.5415 85.9447ZM57.9916 82.2732H59.9956C60.5738 82.2732 61.0798 82.3779 61.5135 82.5873C61.9522 82.7967 62.2912 83.0958 62.5304 83.4846C62.7697 83.8734 62.8894 84.332 62.8894 84.8605C62.8894 85.7278 62.6301 86.3859 62.1117 86.8345C61.5982 87.2782 60.8929 87.5 59.9956 87.5H57.9916V82.2732ZM60.1152 85.855C60.7633 85.855 61.0873 85.5235 61.0873 84.8605C61.0873 84.5564 61.0025 84.3246 60.8331 84.165C60.6636 84.0005 60.4243 83.9183 60.1152 83.9183H59.7638V85.855H60.1152ZM64.7187 82.2732H66.3937L68.4874 87.5H66.6703L66.3338 86.5877H64.7785L64.442 87.5H62.625L64.7187 82.2732ZM65.945 85.2867L65.5562 84.0828L65.1674 85.2867H65.945ZM69.0067 83.7613H67.6682V82.2732H72.1173V83.7613H70.7789V87.5H69.0067V83.7613ZM73.3864 82.2732H75.0614L77.1551 87.5H75.3381L75.0016 86.5877H73.4463L73.1098 87.5H71.2928L73.3864 82.2732ZM74.6128 85.2867L74.2239 84.0828L73.8351 85.2867H74.6128Z" fill="#989FB0"/>
</g>
<defs>
<filter id="filter0_dd_1042_8639" x="27.6221" y="28.6582" width="66.5996" height="81.4502" filterUnits="userSpaceOnUse" color-interpolation-filters="sRGB">
<feFlood flood-opacity="0" result="BackgroundImageFix"/>
<feColorMatrix in="SourceAlpha" type="matrix" values="0 0 0 0 0 0 0 0 0 0 0 0 0 0 0 0 0 0 127 0" result="hardAlpha"/>
<feOffset dy="3"/>
<feGaussianBlur stdDeviation="3.375"/>
<feColorMatrix type="matrix" values="0 0 0 0 0.397708 0 0 0 0 0.47749 0 0 0 0 0.575 0 0 0 0.15 0"/>
<feBlend mode="normal" in2="BackgroundImageFix" result="effect1_dropShadow_1042_8639"/>
<feColorMatrix in="SourceAlpha" type="matrix" values="0 0 0 0 0 0 0 0 0 0 0 0 0 0 0 0 0 0 127 0" result="hardAlpha"/>
<feOffset dy="0.75"/>
<feGaussianBlur stdDeviation="0.375"/>
<feComposite in2="hardAlpha" operator="out"/>
<feColorMatrix type="matrix" values="0 0 0 0 0 0 0 0 0 0 0 0 0 0 0 0 0 0 0.03 0"/>
<feBlend mode="normal" in2="effect1_dropShadow_1042_8639" result="effect2_dropShadow_1042_8639"/>
<feBlend mode="normal" in="SourceGraphic" in2="effect2_dropShadow_1042_8639" result="shape"/>
</filter>
<clipPath id="clip0_1042_8639">
<rect width="120" height="120" fill="white"/>
</clipPath>
</defs>
</svg>
