<svg width="20" height="20" viewBox="0 0 20 20" fill="none" xmlns="http://www.w3.org/2000/svg">
<path d="M9.24999 14.739C8.99061 17.3078 7.04999 19.0547 4.47655 18.8547C1.90311 18.6547 0.837487 16.4828 0.968737 14.4265C1.1078 12.2265 2.16874 11.2468 2.84374 9.89528C3.78124 8.02028 3.45624 6.60466 3.64999 5.84841C3.73436 5.51872 4.1328 5.3906 4.39061 5.61247C5.91249 6.91716 9.63749 10.9031 9.24999 14.739ZM18.589 14.4078C19.4781 16.0734 19.0625 18.3687 17.325 19.0422C14.7203 20.0515 13.0015 18.1765 12.689 15.0515C12.5703 13.8578 11.7344 12.0109 11.5422 11.4734C11.4594 11.239 11.6453 11.0015 11.8906 11.0312C13.3328 11.2109 17.2609 11.9218 18.589 14.4078ZM16.7625 1.79528C18.8812 3.26872 19.55 6.15153 18.0797 8.27341C17.0625 9.73903 14.2656 10.0703 12.5312 8.95778C10.675 7.76716 10.1672 6.5281 9.09374 5.20779C8.05624 3.93279 6.87499 3.21716 6.3078 2.67966C6.06092 2.44528 6.14217 2.03435 6.46092 1.91716C8.34061 1.22029 13.5969 -0.406277 16.7625 1.79528Z" fill="#00E0FF"/>
<path d="M8.34687 14.8156C8.28906 14.989 8.20781 15.1593 8.07656 15.2843C7.94374 15.4109 7.75312 15.4859 7.57656 15.4437C7.31718 15.3828 7.17343 15.1109 7.08281 14.8609C6.83406 14.1743 6.74223 13.4408 6.81406 12.714C6.85468 12.3015 7.00624 11.7625 7.47343 11.65C7.78593 11.575 7.98437 11.8187 8.11249 12.0718C8.50624 12.8484 8.62187 13.9953 8.34687 14.8156ZM17.9562 15.5062C17.9531 15.6437 17.9312 15.789 17.8375 15.889C17.6719 16.0687 17.3734 16.0109 17.1562 15.9C16.6641 15.65 16.2891 15.2047 16.0484 14.7078C15.8922 14.3812 15.6547 13.7828 16.0047 13.5047C16.2484 13.3109 16.625 13.3047 16.875 13.4718C17.4984 13.8906 17.9766 14.7609 17.9562 15.5062ZM16.7141 3.75622C16.3266 4.36872 15.3906 4.15153 14.6281 3.12341C14.2437 2.60778 13.6359 2.37341 13.2969 2.22185C12.6656 1.93903 13.2375 1.55622 13.5266 1.5281C14.3625 1.44841 14.8312 1.51091 15.5891 1.88903C16.1859 2.18903 17.1578 3.05622 16.7141 3.75622Z" fill="#B3E5FC"/>
</svg>
