<svg width="24" height="24" viewBox="0 0 24 24" fill="none" xmlns="http://www.w3.org/2000/svg">
<path d="M7.40973 7.50633L5.05294 5.99625C5.00542 5.96712 4.96513 5.92761 4.93507 5.88069C4.90502 5.83376 4.88599 5.78063 4.87941 5.72529C4.87284 5.66995 4.87888 5.61384 4.8971 5.56118C4.91532 5.50851 4.94524 5.46066 4.9846 5.42121L5.86965 4.53617C6.03966 4.36616 6.32634 4.40283 6.44801 4.61117L7.92142 7.0063C8.11477 7.33632 7.73641 7.70634 7.40973 7.50633ZM5.34962 14.77L2.61281 14.825C2.55716 14.8263 2.50251 14.84 2.45295 14.8654C2.4034 14.8908 2.36024 14.927 2.32672 14.9715C2.29319 15.0159 2.27017 15.0673 2.25939 15.1219C2.24861 15.1766 2.25034 15.2329 2.26446 15.2867L2.58281 16.4968C2.64448 16.7301 2.90949 16.8418 3.1195 16.7251L5.53796 15.4601C5.87131 15.2717 5.73297 14.7617 5.34962 14.77ZM11.7066 19.4186L11.1066 22.0838C11.0516 22.3154 11.2266 22.5388 11.4649 22.5388H12.7167C12.9584 22.5388 13.1334 22.3104 13.0734 22.0771L12.4217 19.412C12.325 19.0403 11.7966 19.0453 11.7066 19.4186ZM16.5902 7.50633L18.947 5.99625C19.1504 5.87124 19.1837 5.58956 19.0153 5.42121L18.1303 4.53617C18.0904 4.49644 18.0419 4.46637 17.9886 4.44827C17.9353 4.43018 17.8786 4.42453 17.8227 4.43178C17.7669 4.43902 17.7134 4.45895 17.6665 4.49005C17.6196 4.52114 17.5804 4.56258 17.5519 4.61117L16.0785 7.0063C15.8852 7.33632 16.2635 7.70634 16.5902 7.50633ZM18.6503 14.77L21.3871 14.825C21.4428 14.8263 21.4974 14.84 21.547 14.8654C21.5965 14.8908 21.6397 14.927 21.6732 14.9715C21.7068 15.0159 21.7298 15.0673 21.7406 15.1219C21.7513 15.1766 21.7496 15.2329 21.7355 15.2867L21.4171 16.4968C21.4027 16.5512 21.3761 16.6016 21.3393 16.6441C21.3024 16.6866 21.2564 16.7202 21.2046 16.7422C21.1529 16.7642 21.0967 16.7741 21.0406 16.7712C20.9844 16.7682 20.9296 16.7525 20.8804 16.7251L18.462 15.4601C18.1286 15.2717 18.267 14.7617 18.6503 14.77Z" fill="url(#paint0_linear_215_1861)"/>
<path d="M12.675 2.57677L14.9185 7.69371C15.0029 7.88625 15.1374 8.05261 15.3081 8.17545C15.4787 8.29828 15.6791 8.37309 15.8885 8.39208L21.3538 8.8821C21.9722 8.97211 22.2189 9.73048 21.7705 10.1672L17.6536 13.6257C17.3203 13.9057 17.1686 14.3457 17.2603 14.7707L18.457 20.3727C18.562 20.9877 17.917 21.4578 17.3636 21.1661L12.5933 18.3726C12.4134 18.267 12.2086 18.2113 12 18.2113C11.7913 18.2113 11.5865 18.267 11.4066 18.3726L6.63635 21.1644C6.08466 21.4544 5.43796 20.9861 5.54296 20.371L6.73969 14.7691C6.8297 14.3441 6.67969 13.904 6.34634 13.624L2.22779 10.1688C1.7811 9.73381 2.02778 8.97377 2.64448 8.88377L8.10977 8.39374C8.31915 8.37476 8.5196 8.29995 8.69022 8.17711C8.86085 8.05428 8.99539 7.88791 9.07982 7.69537L11.3233 2.57843C11.6016 2.0184 12.3983 2.0184 12.675 2.57677Z" fill="url(#paint1_linear_215_1861)"/>
<path d="M12.5117 8.00039L12.1317 4.23019C12.1166 4.02018 12.0733 3.66016 12.41 3.66016C12.6767 3.66016 12.8217 4.21519 12.8217 4.21519L13.9617 7.24201C14.3918 8.39374 14.2151 8.78876 13.8001 9.02211C13.3234 9.28879 12.62 9.08045 12.5117 8.00039Z" fill="#FFFF8D"/>
<path d="M17.2136 13.2894L20.4837 10.7376C20.6454 10.6026 20.9371 10.3876 20.7038 10.1426C20.5187 9.94921 20.0187 10.2276 20.0187 10.2276L17.1569 11.346C16.3035 11.641 15.7368 12.0777 15.6868 12.6277C15.6218 13.3611 16.2802 13.9261 17.2136 13.2894Z" fill="#F4B400"/>
<defs>
<linearGradient id="paint0_linear_215_1861" x1="2.25241" y1="4.42871" x2="20.3134" y2="23.871" gradientUnits="userSpaceOnUse">
<stop stop-color="#FFF174"/>
<stop offset="1" stop-color="#FFD600"/>
</linearGradient>
<linearGradient id="paint1_linear_215_1861" x1="1.99971" y1="2.1582" x2="21.0759" y2="22.1369" gradientUnits="userSpaceOnUse">
<stop stop-color="#FFF174"/>
<stop offset="1" stop-color="#FFD600"/>
</linearGradient>
</defs>
</svg>
