<svg width="28" height="28" viewBox="0 0 28 28" fill="none" xmlns="http://www.w3.org/2000/svg">
<path d="M9.74376 23.6155C10.725 24.8629 12.2665 25.6667 14 25.6667C15.7335 25.6667 17.275 24.8629 18.2563 23.6155C15.4308 23.9984 12.5692 23.9984 9.74376 23.6155Z" fill="#FACF35"/>
<path d="M21.874 10.5V11.3215C21.874 12.3073 22.1553 13.2711 22.6826 14.0913L23.9746 16.1014C25.1547 17.9374 24.2538 20.4329 22.2012 21.0135C16.8318 22.5324 11.1682 22.5324 5.79876 21.0135C3.74622 20.4329 2.84529 17.9374 4.02542 16.1014L5.31743 14.0913C5.84467 13.2711 6.12602 12.3073 6.12602 11.3215V10.5C6.12602 5.98971 9.65132 2.33337 14 2.33337C18.3487 2.33337 21.874 5.98971 21.874 10.5Z" fill="#FACF35"/>
</svg>
