<svg width="16" height="16" viewBox="0 0 16 16" fill="none" xmlns="http://www.w3.org/2000/svg">
<path d="M2 4.25748C2 3.93451 2.23025 3.67269 2.51429 3.67269L4.29045 3.67237C4.64335 3.66221 4.95468 3.40705 5.07476 3.02957C5.07792 3.01965 5.08155 3.00741 5.09457 2.96299L5.1711 2.70187C5.21793 2.54177 5.25874 2.40229 5.31583 2.27761C5.54139 1.78507 5.95872 1.44304 6.44098 1.35547C6.56305 1.33331 6.69232 1.3334 6.84071 1.33351H9.15941C9.30779 1.3334 9.43707 1.33331 9.55914 1.35547C10.0414 1.44304 10.4587 1.78507 10.6843 2.27761C10.7414 2.40229 10.7822 2.54177 10.829 2.70187L10.9055 2.96299C10.9186 3.00741 10.9222 3.01965 10.9254 3.02957C11.0454 3.40705 11.4185 3.66252 11.7714 3.67269H13.4857C13.7697 3.67269 14 3.93451 14 4.25748C14 4.58045 13.7697 4.84227 13.4857 4.84227H2.51429C2.23025 4.84227 2 4.58045 2 4.25748Z" fill="#CA1E10"/>
<path fill-rule="evenodd" clip-rule="evenodd" d="M7.7304 14.6668H8.2696C10.1247 14.6668 11.0523 14.6668 11.6554 14.0762C12.2585 13.4856 12.3202 12.5168 12.4436 10.5792L12.6214 7.78723C12.6884 6.7359 12.7219 6.21024 12.4193 5.87713C12.1167 5.54402 11.6058 5.54402 10.584 5.54402H5.41603C4.39418 5.54402 3.88325 5.54402 3.5807 5.87713C3.27815 6.21024 3.31163 6.7359 3.37858 7.78723L3.55639 10.5792C3.6798 12.5168 3.7415 13.4856 4.34459 14.0762C4.94769 14.6668 5.87526 14.6668 7.7304 14.6668ZM10.1642 8.23056C10.1917 7.94132 9.99119 7.6834 9.71642 7.65448C9.44165 7.62556 9.19662 7.83658 9.16915 8.12581L8.83581 11.6346C8.80834 11.9238 9.00881 12.1817 9.28358 12.2107C9.55835 12.2396 9.80337 12.0286 9.83085 11.7393L10.1642 8.23056ZM6.28358 7.65448C6.55835 7.62556 6.80337 7.83658 6.83085 8.12581L7.16419 11.6346C7.19166 11.9238 6.99119 12.1817 6.71642 12.2107C6.44165 12.2396 6.19662 12.0286 6.16915 11.7393L5.83581 8.23056C5.80834 7.94132 6.00881 7.6834 6.28358 7.65448Z" fill="#CA1E10"/>
</svg>
