<svg width="24" height="24" viewBox="0 0 24 24" fill="none" xmlns="http://www.w3.org/2000/svg">
<path d="M20.097 9.40702C20.611 9.09017 21.0466 8.66107 21.3712 8.15188C21.6957 7.64268 21.9008 7.06662 21.971 6.46689C22.0411 5.86716 21.9746 5.25932 21.7764 4.68896C21.5782 4.11859 21.2535 3.6005 20.8265 3.17353C20.3995 2.74656 19.8814 2.42179 19.3111 2.22359C18.7407 2.02538 18.1329 1.95888 17.5331 2.02907C16.9334 2.09925 16.3573 2.3043 15.8481 2.62885C15.339 2.95339 14.9098 3.389 14.593 3.90302C15.8817 4.31725 17.0531 5.03258 18.0103 5.98973C18.9674 6.94689 19.6828 8.11833 20.097 9.40702Z" fill="url(#paint0_linear_215_1934)"/>
<path d="M20.097 9.40702C20.611 9.09017 21.0466 8.66107 21.3712 8.15188C21.6957 7.64268 21.9008 7.06662 21.971 6.46689C22.0411 5.86716 21.9746 5.25932 21.7764 4.68896C21.5782 4.11859 21.2535 3.6005 20.8265 3.17353C20.3995 2.74656 19.8814 2.42179 19.3111 2.22359C18.7407 2.02538 18.1329 1.95888 17.5331 2.02907C16.9334 2.09925 16.3573 2.3043 15.8481 2.62885C15.339 2.95339 14.9098 3.389 14.593 3.90302C15.8817 4.31725 17.0531 5.03258 18.0103 5.98973C18.9674 6.94689 19.6828 8.11833 20.097 9.40702Z" fill="url(#paint1_radial_215_1934)"/>
<path d="M9.407 3.90302C8.11832 4.31725 6.94688 5.03258 5.98972 5.98973C5.03256 6.94689 4.31724 8.11833 3.90301 9.40702C3.38899 9.09017 2.95338 8.66107 2.62883 8.15188C2.30429 7.64268 2.09924 7.06662 2.02905 6.46689C1.95887 5.86716 2.02537 5.25932 2.22357 4.68896C2.42178 4.11859 2.74654 3.6005 3.17351 3.17353C3.60048 2.74656 4.11857 2.42179 4.68894 2.22359C5.25931 2.02538 5.86715 1.95888 6.46688 2.02907C7.06661 2.09925 7.64267 2.3043 8.15186 2.62885C8.66105 2.95339 9.09016 3.389 9.407 3.90302Z" fill="url(#paint2_linear_215_1934)"/>
<path d="M9.407 3.90302C8.11832 4.31725 6.94688 5.03258 5.98972 5.98973C5.03256 6.94689 4.31724 8.11833 3.90301 9.40702C3.38899 9.09017 2.95338 8.66107 2.62883 8.15188C2.30429 7.64268 2.09924 7.06662 2.02905 6.46689C1.95887 5.86716 2.02537 5.25932 2.22357 4.68896C2.42178 4.11859 2.74654 3.6005 3.17351 3.17353C3.60048 2.74656 4.11857 2.42179 4.68894 2.22359C5.25931 2.02538 5.86715 1.95888 6.46688 2.02907C7.06661 2.09925 7.64267 2.3043 8.15186 2.62885C8.66105 2.95339 9.09016 3.389 9.407 3.90302Z" fill="url(#paint3_radial_215_1934)"/>
<path d="M4.28 20.7797L7.03 18.0297L5.97 16.9697L3.22 19.7197C3.08752 19.8619 3.0154 20.0499 3.01882 20.2442C3.02225 20.4386 3.10096 20.6239 3.23838 20.7613C3.37579 20.8988 3.56118 20.9775 3.75548 20.9809C3.94978 20.9843 4.13782 20.9122 4.28 20.7797Z" fill="url(#paint4_linear_215_1934)"/>
<path d="M20.78 19.7197L18.03 16.9697L16.97 18.0297L19.72 20.7797C19.7887 20.8534 19.8715 20.9125 19.9635 20.9535C20.0555 20.9945 20.1548 21.0165 20.2555 21.0183C20.3562 21.0201 20.4562 21.0016 20.5496 20.9639C20.643 20.9261 20.7278 20.87 20.799 20.7988C20.8703 20.7275 20.9264 20.6427 20.9641 20.5493C21.0018 20.4559 21.0204 20.3559 21.0186 20.2552C21.0168 20.1545 20.9948 20.0552 20.9538 19.9632C20.9128 19.8712 20.8537 19.7884 20.78 19.7197Z" fill="url(#paint5_linear_215_1934)"/>
<path d="M21 12C21 13.1819 20.7672 14.3522 20.3149 15.4442C19.8626 16.5361 19.1997 17.5282 18.364 18.364C17.5282 19.1997 16.5361 19.8626 15.4442 20.3149C14.3522 20.7672 13.1819 21 12 21C10.8181 21 9.64778 20.7672 8.55585 20.3149C7.46392 19.8626 6.47177 19.1997 5.63604 18.364C4.80031 17.5282 4.13738 16.5361 3.68508 15.4442C3.23279 14.3522 3 13.1819 3 12C3 9.61305 3.94821 7.32387 5.63604 5.63604C7.32387 3.94821 9.61305 3 12 3C14.3869 3 16.6761 3.94821 18.364 5.63604C20.0518 7.32387 21 9.61305 21 12Z" fill="url(#paint6_linear_215_1934)"/>
<path d="M19.5 12C19.5 13.9891 18.7098 15.8968 17.3033 17.3033C15.8968 18.7098 13.9891 19.5 12 19.5C10.0109 19.5 8.10322 18.7098 6.6967 17.3033C5.29018 15.8968 4.5 13.9891 4.5 12C4.5 10.0109 5.29018 8.10322 6.6967 6.6967C8.10322 5.29018 10.0109 4.5 12 4.5C13.9891 4.5 15.8968 5.29018 17.3033 6.6967C18.7098 8.10322 19.5 10.0109 19.5 12Z" fill="url(#paint7_linear_215_1934)"/>
<path fill-rule="evenodd" clip-rule="evenodd" d="M11.25 7C11.4489 7 11.6397 7.07902 11.7803 7.21967C11.921 7.36032 12 7.55109 12 7.75V12H14.75C14.9489 12 15.1397 12.079 15.2803 12.2197C15.421 12.3603 15.5 12.5511 15.5 12.75C15.5 12.9489 15.421 13.1397 15.2803 13.2803C15.1397 13.421 14.9489 13.5 14.75 13.5H11.25C11.0511 13.5 10.8603 13.421 10.7197 13.2803C10.579 13.1397 10.5 12.9489 10.5 12.75V7.75C10.5 7.55109 10.579 7.36032 10.7197 7.21967C10.8603 7.07902 11.0511 7 11.25 7Z" fill="url(#paint8_linear_215_1934)"/>
<defs>
<linearGradient id="paint0_linear_215_1934" x1="22.21" y1="9.37002" x2="15.208" y2="3.64102" gradientUnits="userSpaceOnUse">
<stop stop-color="#FF6F47"/>
<stop offset="1" stop-color="#FFCD0F"/>
</linearGradient>
<radialGradient id="paint1_radial_215_1934" cx="0" cy="0" r="1" gradientUnits="userSpaceOnUse" gradientTransform="translate(12.6002 11.5996) rotate(-45) scale(11.0309)">
<stop offset="0.644" stop-color="#FF6F47"/>
<stop offset="0.942" stop-color="#FF6F47" stop-opacity="0"/>
</radialGradient>
<linearGradient id="paint2_linear_215_1934" x1="10.383" y1="9.37002" x2="3.381" y2="3.64102" gradientUnits="userSpaceOnUse">
<stop stop-color="#FF6F47"/>
<stop offset="1" stop-color="#FFCD0F"/>
</linearGradient>
<radialGradient id="paint3_radial_215_1934" cx="0" cy="0" r="1" gradientUnits="userSpaceOnUse" gradientTransform="translate(12.5996 11.5989) rotate(-135) scale(11.0309)">
<stop offset="0.659" stop-color="#FF6F47"/>
<stop offset="0.949" stop-color="#FF6F47" stop-opacity="0"/>
</radialGradient>
<linearGradient id="paint4_linear_215_1934" x1="3" y1="15.2387" x2="3.847" y2="22.3187" gradientUnits="userSpaceOnUse">
<stop stop-color="#CAD2D9"/>
<stop offset="1" stop-color="#70777D"/>
</linearGradient>
<linearGradient id="paint5_linear_215_1934" x1="3" y1="15.2387" x2="3.847" y2="22.3187" gradientUnits="userSpaceOnUse">
<stop stop-color="#CAD2D9"/>
<stop offset="1" stop-color="#70777D"/>
</linearGradient>
<linearGradient id="paint6_linear_215_1934" x1="6" y1="2" x2="15" y2="22" gradientUnits="userSpaceOnUse">
<stop stop-color="#1EC8B0"/>
<stop offset="1" stop-color="#2764E7"/>
</linearGradient>
<linearGradient id="paint7_linear_215_1934" x1="6.783" y1="2.87" x2="16.565" y2="23.739" gradientUnits="userSpaceOnUse">
<stop stop-color="#FDFDFD"/>
<stop offset="1" stop-color="#DEDEFF"/>
</linearGradient>
<linearGradient id="paint8_linear_215_1934" x1="12.6" y1="7.133" x2="15.429" y2="11.849" gradientUnits="userSpaceOnUse">
<stop stop-color="#1EC8B0"/>
<stop offset="1" stop-color="#2764E7"/>
</linearGradient>
</defs>
</svg>
