<svg width="24" height="24" viewBox="0 0 24 24" fill="none" xmlns="http://www.w3.org/2000/svg">
<path d="M19.1477 12.2453C18.3039 10.1259 16.7783 8.29463 15.31 6.53429C13.9305 4.88062 12.6153 3.09068 12.0659 1.00894C12.065 1.00591 12.0641 1.00303 12.0633 1C12.0624 1.00303 12.0615 1.00591 12.0606 1.00894C11.5113 3.09068 10.196 4.88048 8.81663 6.53429C6.31672 9.53137 3.45673 12.5294 4.08893 16.766C4.83965 21.7959 11.2017 24.3049 15.5537 22.3189C16.6157 21.8342 17.5443 21.0854 18.2304 20.1398C19.5696 18.2938 20.0205 15.8728 19.5666 13.6507C19.4687 13.1711 19.3288 12.7001 19.1477 12.2453Z" fill="white"/>
<path d="M18.5846 13.4401C18.4991 13.0218 18.3772 12.6109 18.2191 12.2141C17.483 10.3649 16.152 8.76742 14.8709 7.23158C14.7883 7.13248 14.706 7.03282 14.6241 6.93262C15.4405 8.42386 16.1151 9.97746 16.3114 11.6957C16.4854 13.2186 16.3291 14.8769 15.5436 16.2225C14.7484 17.5844 13.3511 18.3697 11.7995 18.504C10.2791 18.6356 8.68806 18.3146 7.29055 17.7208C6.49689 17.3837 5.71231 16.9142 5.10585 16.2893C5.85175 20.5889 11.3252 22.7177 15.0835 21.0025C16.0101 20.5797 16.8201 19.9266 17.4187 19.1014C18.5873 17.4909 18.9806 15.3788 18.5846 13.4401Z" fill="#D6D6D6"/>
<path d="M11.0001 4.96571C11.063 4.85931 11.1335 4.7463 11.2474 4.69868C11.3961 4.6366 11.576 4.71327 11.6729 4.8421C11.7698 4.97094 11.7986 5.13873 11.8023 5.29977C11.8144 5.81181 11.2631 7.26865 10.5035 6.77175C9.91847 6.38896 10.79 5.32069 11.0001 4.96571ZM6.57053 11.5506C6.3514 11.8458 6.12718 12.1575 6.07074 12.5208C6.01431 12.884 6.18568 13.3107 6.53764 13.4166C6.94823 13.54 7.34121 13.1955 7.61691 12.8672C8.57657 11.7245 9.3222 10.4038 9.81207 8.99457C9.91228 8.70662 10.5108 7.4246 9.81826 7.5555C9.5171 7.61248 9.29164 8.04744 9.11462 8.26657C8.85048 8.59361 8.58827 8.92231 8.32812 9.25252C7.73143 10.0103 7.14547 10.7764 6.57053 11.5506Z" fill="#E3E3E3"/>
</svg>
