<svg width="24" height="24" viewBox="0 0 24 24" fill="none" xmlns="http://www.w3.org/2000/svg">
<path d="M19 13.4996C19 14.9583 18.4205 16.3573 17.3891 17.3887C16.3576 18.4202 14.9587 18.9996 13.5 18.9996C12.3636 18.9996 11.3054 18.6526 10.4302 18.0636C10.3287 17.9952 10.318 17.8517 10.4045 17.7651L17.7655 10.4042C17.852 10.3176 17.9956 10.3283 18.064 10.4299C18.653 11.305 19 12.3633 19 13.4996ZM14.8436 20.2915C14.7316 20.1941 14.761 20.0128 14.8982 19.9559L17.0707 19.0539C17.2081 18.9969 17.3575 19.1045 17.3468 19.2529L17.1586 21.8803C17.1468 22.0448 16.9523 22.1251 16.8279 22.0169L14.8436 20.2915ZM19.2523 17.3575C19.1041 17.3677 18.9969 17.2185 19.0539 17.0813L19.9559 14.9085C20.0129 14.7712 20.1945 14.7418 20.2918 14.8542L22.0176 16.8466C22.1256 16.9713 22.0447 17.1658 21.8801 17.1771L19.2523 17.3575ZM20.2929 12.1739C20.1953 12.2865 20.0132 12.2567 19.9566 12.1188L19.0624 9.93814C19.0061 9.8008 19.1137 9.65213 19.2618 9.66277L21.8818 9.85103C22.046 9.86283 22.1264 10.057 22.0186 10.1815L20.2929 12.1739ZM9.65324 19.253C9.64257 19.1046 9.79197 18.9969 9.92941 19.054L12.1011 19.9555C12.2384 20.0126 12.2677 20.1942 12.1553 20.2915L10.1718 22.0084C10.0473 22.1162 9.8532 22.0358 9.8414 21.8715L9.65324 19.253Z" fill="url(#paint0_linear_215_1878)"/>
<path d="M18.355 4.215C18.7499 3.82012 19.3901 3.82012 19.785 4.215C20.1799 4.60988 20.1799 5.25012 19.785 5.645L5.645 19.785C5.25012 20.1799 4.60988 20.1799 4.215 19.785C3.82012 19.3901 3.82012 18.7499 4.215 18.355L18.355 4.215Z" fill="white"/>
<path d="M6.8204 2.04213C7.01851 2.01746 7.10291 2.27282 6.94721 2.39777C5.46539 3.58683 4.5 5.42773 4.5 7.5C4.5 9.57133 5.46451 11.4115 6.96654 12.6006C7.12368 12.725 7.0393 12.9825 6.84036 12.9581C4.09975 12.6221 2 10.3086 2 7.5C2 6.04131 2.57946 4.64236 3.61091 3.61091C4.48087 2.74096 5.61225 2.19254 6.8204 2.04213Z" fill="url(#paint1_linear_215_1878)"/>
<path d="M12.7332 5.4164C12.7873 5.59354 12.5924 5.7427 12.4355 5.64416L11.5219 5.07005C11.454 5.02741 11.3673 5.0294 11.3014 5.07512L10.4054 5.69738C10.2539 5.80256 10.0529 5.66416 10.0971 5.48514L10.3585 4.42714C10.3776 4.34978 10.349 4.26846 10.2856 4.22014L9.42252 3.56194C9.27577 3.45003 9.34599 3.216 9.53012 3.20338L10.6187 3.12873C10.6984 3.12327 10.7672 3.07089 10.7937 2.99553L11.1559 1.96498C11.2169 1.79161 11.4597 1.7853 11.5296 1.95527L11.95 2.97807C11.9803 3.05191 12.0517 3.10062 12.1315 3.10201L13.1941 3.12043C13.3792 3.12364 13.4609 3.35494 13.319 3.47377L12.4816 4.17468C12.42 4.22623 12.3952 4.30963 12.4187 4.38646L12.7332 5.4164ZM9.4331 9.0259C9.48721 9.2031 9.29211 9.35226 9.1353 9.25358L8.54211 8.88028C8.47415 8.83751 8.38719 8.83954 8.32129 8.88543L7.75247 9.28158C7.60024 9.38759 7.39822 9.24721 7.44449 9.06757L7.61688 8.3983C7.63695 8.32039 7.60838 8.23803 7.54437 8.18929L6.98474 7.76316C6.83767 7.65116 6.90824 7.41668 7.0927 7.40447L7.78795 7.35847C7.86801 7.35317 7.93716 7.30054 7.96359 7.22478L8.19432 6.56333C8.25519 6.38884 8.49989 6.38318 8.56876 6.55467L8.8308 7.20722C8.86064 7.28153 8.93193 7.33087 9.01198 7.33264L9.70389 7.3479C9.889 7.35198 9.96965 7.58373 9.82708 7.70186L9.29258 8.14473C9.23045 8.19621 9.20534 8.27997 9.2289 8.35714L9.4331 9.0259Z" fill="url(#paint2_linear_215_1878)"/>
<defs>
<linearGradient id="paint0_linear_215_1878" x1="9.63" y1="9.63965" x2="22.27" y2="22.2896" gradientUnits="userSpaceOnUse">
<stop stop-color="#FF5000"/>
<stop offset="1" stop-color="#FFFA37"/>
</linearGradient>
<linearGradient id="paint1_linear_215_1878" x1="2" y1="2" x2="10.8287" y2="6.43842" gradientUnits="userSpaceOnUse">
<stop stop-color="#CC00FF"/>
<stop offset="1" stop-color="#2B73FF"/>
</linearGradient>
<linearGradient id="paint2_linear_215_1878" x1="6.56" y1="1.46973" x2="14.6175" y2="8.58458" gradientUnits="userSpaceOnUse">
<stop stop-color="#CC00FF"/>
<stop offset="1" stop-color="#2B73FF"/>
</linearGradient>
</defs>
</svg>
