<svg width="20" height="20" viewBox="0 0 20 20" fill="none" xmlns="http://www.w3.org/2000/svg">
<path fill-rule="evenodd" clip-rule="evenodd" d="M10 18.3334C14.0301 18.3334 17.2972 15.0969 17.2972 11.1045C17.2972 7.11213 14.0301 3.87565 10 3.87565C5.96986 3.87565 2.70278 7.11213 2.70278 11.1045C2.70278 15.0969 5.96986 18.3334 10 18.3334ZM10 7.28929C10.3358 7.28929 10.6081 7.559 10.6081 7.8917V10.855L12.457 12.6866C12.6945 12.9218 12.6945 13.3033 12.457 13.5385C12.2195 13.7738 11.8345 13.7738 11.597 13.5385L9.57001 11.5305C9.45597 11.4175 9.3919 11.2643 9.3919 11.1045V7.8917C9.3919 7.559 9.66416 7.28929 10 7.28929Z" fill="#CA1E10"/>
<path fill-rule="evenodd" clip-rule="evenodd" d="M6.86708 1.94996C7.04508 2.23209 6.9585 2.60375 6.6737 2.78008L3.43047 4.7881C3.14568 4.96443 2.77051 4.87866 2.59251 4.59653C2.41452 4.3144 2.50109 3.94275 2.78589 3.76642L6.02912 1.75839C6.31392 1.58206 6.68908 1.66783 6.86708 1.94996Z" fill="#CA1E10"/>
<path fill-rule="evenodd" clip-rule="evenodd" d="M13.1329 1.94996C13.3109 1.66783 13.6861 1.58206 13.9709 1.7584L17.2141 3.76642C17.4989 3.94275 17.5855 4.3144 17.4075 4.59653C17.2295 4.87866 16.8543 4.96443 16.5695 4.7881L13.3263 2.78008C13.0415 2.60374 12.9549 2.23209 13.1329 1.94996Z" fill="#CA1E10"/>
</svg>
