<svg width="20" height="20" viewBox="0 0 20 20" fill="none" xmlns="http://www.w3.org/2000/svg">
<path d="M1.27899 9.14282C1.34039 8.13546 1.37109 7.63178 1.63212 7.14732C1.87061 6.70469 2.32692 6.27535 2.78323 6.06423C3.28267 5.83316 3.85514 5.83316 5.00007 5.83316C5.4268 5.83316 5.64016 5.83316 5.84683 5.79826C6.05115 5.76375 6.25039 5.70398 6.43996 5.62032C6.63171 5.53569 6.80984 5.41824 7.1661 5.18335L7.34855 5.06305C9.46769 3.66581 10.5273 2.9672 11.4167 3.27073C11.5872 3.32892 11.7523 3.41292 11.8997 3.51653C12.6687 4.05691 12.7271 5.31416 12.8439 7.82867C12.8872 8.75972 12.9167 9.55659 12.9167 9.99982C12.9167 10.4431 12.8872 11.2399 12.8439 12.171C12.7271 14.6855 12.6687 15.9427 11.8997 16.4831C11.7523 16.5867 11.5872 16.6707 11.4167 16.7289C10.5273 17.0325 9.46769 16.3338 7.34854 14.9366L7.1661 14.8163C6.80984 14.5814 6.63171 14.464 6.43996 14.3793C6.25039 14.2957 6.05115 14.2359 5.84683 14.2014C5.64016 14.1665 5.4268 14.1665 5.00007 14.1665C3.85514 14.1665 3.28267 14.1665 2.78323 13.9354C2.32692 13.7243 1.87061 13.295 1.63212 12.8523C1.37109 12.3679 1.34039 11.8642 1.27899 10.8568C1.26083 10.5588 1.25 10.2685 1.25 9.99982C1.25 9.73116 1.26083 9.44084 1.27899 9.14282Z" stroke="white" stroke-width="1.25"/>
<path d="M16.6665 5C16.6665 5 17.9165 6.5 17.9165 10C17.9165 13.5 16.6665 15 16.6665 15" stroke="white" stroke-width="1.25" stroke-linecap="round"/>
<path d="M15 7.5C15 7.5 15.4167 8.25 15.4167 10C15.4167 11.75 15 12.5 15 12.5" stroke="white" stroke-width="1.25" stroke-linecap="round"/>
</svg>
