<svg width="20" height="20" viewBox="0 0 20 20" fill="none" xmlns="http://www.w3.org/2000/svg">
<path d="M4.1665 6.66675C4.1665 4.30973 4.1665 3.13121 4.89874 2.39898C5.63097 1.66675 6.80948 1.66675 9.1665 1.66675H10.8332C13.1902 1.66675 14.3687 1.66675 15.1009 2.39898C15.8332 3.13121 15.8332 4.30973 15.8332 6.66675V13.3334C15.8332 15.6904 15.8332 16.8689 15.1009 17.6012C14.3687 18.3334 13.1902 18.3334 10.8332 18.3334H9.1665C6.80948 18.3334 5.63097 18.3334 4.89874 17.6012C4.1665 16.8689 4.1665 15.6904 4.1665 13.3334V6.66675Z" stroke="white" stroke-width="1.25"/>
<path d="M12.0832 15.8333H7.9165" stroke="white" stroke-width="1.25" stroke-linecap="round"/>
<path d="M18.3331 5L17.6861 6.29399C17.5688 6.5286 17.5688 6.80474 17.6861 7.03934L18.1468 7.96066C18.2641 8.19526 18.2641 8.47141 18.1468 8.70601L17.6861 9.62732C17.5688 9.86193 17.5688 10.1381 17.6861 10.3727L18.1468 11.294C18.2641 11.5286 18.2641 11.8047 18.1468 12.0393L17.6861 12.9607C17.5688 13.1953 17.5688 13.4714 17.6861 13.706L18.3331 15" stroke="white" stroke-width="1.25" stroke-linecap="round" stroke-linejoin="round"/>
<path d="M1.6665 5L2.3135 6.29399C2.4308 6.5286 2.4308 6.80474 2.3135 7.03934L1.85284 7.96066C1.73554 8.19526 1.73554 8.47141 1.85284 8.70601L2.3135 9.62732C2.4308 9.86193 2.4308 10.1381 2.3135 10.3727L1.85284 11.294C1.73554 11.5286 1.73554 11.8047 1.85284 12.0393L2.3135 12.9607C2.4308 13.1953 2.4308 13.4714 2.3135 13.706L1.6665 15" stroke="white" stroke-width="1.25" stroke-linecap="round" stroke-linejoin="round"/>
</svg>
