<svg width="24" height="24" viewBox="0 0 24 24" fill="none" xmlns="http://www.w3.org/2000/svg">
<path fill-rule="evenodd" clip-rule="evenodd" d="M15.7813 4.25C15.7813 2.183 14.0983 0.5 12.0313 0.5C9.96426 0.5 8.28126 2.18375 8.28126 4.25V13.7953C7.71891 14.3092 7.27003 14.9349 6.96331 15.6323C6.65659 16.3297 6.49879 17.0834 6.50001 17.8453C6.50001 20.8948 8.98251 23.378 12.032 23.378C15.0815 23.378 17.5633 20.8955 17.5633 17.8453C17.5633 16.2808 16.9048 14.8228 15.782 13.7938V4.2515L15.7813 4.25ZM16.0625 17.8475C16.0609 18.916 15.6356 19.9402 14.8799 20.6955C14.1242 21.4508 13.0997 21.8755 12.0313 21.8765C10.9629 21.8751 9.93875 21.4501 9.18333 20.6947C8.4279 19.9393 8.0029 18.9151 8.00151 17.8468C8.00151 16.5005 8.67351 15.2645 9.78351 14.5183V4.2515C9.78351 3.01175 10.7908 2.0015 12.0313 2.0015C13.2718 2.0015 14.2813 3.011 14.2813 4.2515V14.519C14.8293 14.8841 15.2786 15.3789 15.5894 15.9594C15.9001 16.54 16.0626 17.189 16.0625 17.8475Z" fill="white"/>
<path d="M8.75076 17.846C8.76369 18.7078 9.11506 19.5298 9.729 20.1347C10.3429 20.7396 11.1702 21.0787 12.032 21.0788C12.8939 21.0789 13.7212 20.74 14.3352 20.1352C14.9493 19.5305 15.3009 18.7085 15.314 17.8468L8.75076 17.846Z" fill="#00D5FF"/>
<path d="M21.845 19.7319L18.47 17.7834L21.845 15.8364V19.7319Z" fill="white"/>
</svg>
