<svg width="24" height="24" viewBox="0 0 24 24" fill="none" xmlns="http://www.w3.org/2000/svg">
<path fill-rule="evenodd" clip-rule="evenodd" d="M12.0313 0.5C14.0983 0.5 15.7813 2.183 15.7813 4.25L15.782 4.2515V13.7938C16.9048 14.8228 17.5633 16.2808 17.5633 17.8453C17.5633 20.8955 15.0815 23.378 12.032 23.378C8.98251 23.378 6.50001 20.8948 6.50001 17.8453C6.49879 17.0834 6.65659 16.3297 6.96331 15.6323C7.27003 14.9349 7.71891 14.3092 8.28126 13.7953V4.25C8.28126 2.18375 9.96426 0.5 12.0313 0.5ZM14.8799 20.6955C15.6356 19.9402 16.0609 18.916 16.0625 17.8475C16.0626 17.189 15.9001 16.54 15.5894 15.9594C15.2786 15.3789 14.8293 14.8841 14.2813 14.519V4.2515C14.2813 3.011 13.2718 2.0015 12.0313 2.0015C10.7908 2.0015 9.78351 3.01175 9.78351 4.2515V14.5183C8.67351 15.2645 8.00151 16.5005 8.00151 17.8468C8.0029 18.9151 8.4279 19.9393 9.18333 20.6947C9.93875 21.4501 10.9629 21.8751 12.0313 21.8765C13.0997 21.8755 14.1242 21.4508 14.8799 20.6955Z" fill="white"/>
<path d="M13.5313 14.945V9C13.5313 8.17157 12.8597 7.5 12.0313 7.5C11.2028 7.5 10.5313 8.17157 10.5313 9V14.9435C9.47901 15.4895 8.75076 16.5785 8.75076 17.846C8.76369 18.7078 9.11506 19.5298 9.729 20.1347C10.3429 20.7396 11.1702 21.0787 12.032 21.0788C12.8939 21.0789 13.7212 20.74 14.3352 20.1352C14.9493 19.5305 15.3009 18.7085 15.314 17.8468C15.314 16.5793 14.5865 15.4903 13.532 14.9458L13.5313 14.945Z" fill="#F57C00"/>
<path d="M21.845 9.8955L18.47 7.947L21.845 6V9.8955Z" fill="white"/>
</svg>
