<svg width="24" height="24" viewBox="0 0 24 24" fill="none" xmlns="http://www.w3.org/2000/svg">
<path d="M4.18336 2C3.62202 2 3.08225 2.2162 2.67612 2.60371C2.24432 3.01572 2 3.58653 2 4.18336V19.903C2 20.4512 2.21466 20.9776 2.59801 21.3694C2.99252 21.7727 3.53287 22 4.09702 22H19.88C20.4423 22 20.9815 21.7766 21.3791 21.3791C21.7766 20.9815 22 20.4423 22 19.88V4.12118C22 3.55902 21.7768 3.01985 21.3796 2.62212C20.9817 2.22381 20.4418 2 19.8788 2H4.18336ZM11.0794 3.45455C11.3556 3.44743 11.5814 3.67086 11.5814 3.94716V4.88372C11.5814 5.11491 11.7688 5.30233 12 5.30233C12.2312 5.30233 12.4186 5.11491 12.4186 4.88372V3.94716C12.4186 3.67086 12.6444 3.44743 12.9206 3.45455C13.7331 3.4755 14.5402 3.52395 15.3265 3.60052C15.6246 3.62955 15.8238 3.91809 15.7511 4.20862L15.4175 5.54026C15.3615 5.76349 15.4969 5.98985 15.72 6.04627C15.9438 6.10288 16.1711 5.96697 16.2271 5.74298L16.612 4.20506C16.6738 3.95791 16.913 3.79724 17.1644 3.83831C17.8608 3.95204 18.5271 4.0903 19.1518 4.25306C19.7137 4.39944 19.9899 5.01584 19.7612 5.54946L18.2861 8.99145C18.0943 9.43877 17.6069 9.67896 17.1278 9.59322C16.0179 9.39455 14.6514 9.27201 13.2326 9.22791C13.4233 9.48372 13.5349 9.8 13.5349 10.1395C13.5349 10.9814 12.8419 11.6744 12 11.6744C11.1581 11.6744 10.4651 10.9814 10.4651 10.1395C10.4651 9.8 10.5767 9.48372 10.7674 9.22791C9.34517 9.27201 7.98098 9.39451 6.87219 9.59313C6.39314 9.67894 5.90565 9.43877 5.71394 8.99144L4.2388 5.54946C4.01011 5.01584 4.28635 4.39944 4.84815 4.25306C5.47287 4.0903 6.13916 3.95204 6.83559 3.83831C7.08702 3.79724 7.32615 3.95791 7.388 4.20506L7.77286 5.74298C7.82891 5.96697 8.05617 6.10288 8.28002 6.04627C8.50312 5.98985 8.63845 5.76349 8.58253 5.54026L8.24894 4.20862C8.17617 3.91809 8.37541 3.62955 8.6735 3.60052C9.45982 3.52395 10.2669 3.4755 11.0794 3.45455ZM10.3188 4.7783C10.2274 4.56561 9.98117 4.46698 9.76824 4.5578C9.55469 4.64888 9.45557 4.89597 9.54697 5.10939L11.0023 8.5074C11.0813 8.69192 11.3034 8.75999 11.4926 8.69298C11.7078 8.61677 11.8653 8.37769 11.7752 8.16793L10.3188 4.7783ZM12 9.44186C11.6093 9.44186 11.3023 9.74884 11.3023 10.1395C11.3023 10.5302 11.6093 10.8372 12 10.8372C12.3907 10.8372 12.6977 10.5302 12.6977 10.1395C12.6977 9.74884 12.3907 9.44186 12 9.44186ZM6.04651 17.2093C6.04651 16.9781 6.23393 16.7907 6.46512 16.7907H17.5349C17.7661 16.7907 17.9535 16.9781 17.9535 17.2093C17.9535 17.4405 17.7661 17.6279 17.5349 17.6279H6.46512C6.23393 17.6279 6.04651 17.4405 6.04651 17.2093ZM6.04651 19.4419C6.04651 19.2107 6.23393 19.0233 6.46512 19.0233H17.5349C17.7661 19.0233 17.9535 19.2107 17.9535 19.4419C17.9535 19.673 17.7661 19.8605 17.5349 19.8605H6.46512C6.23393 19.8605 6.04651 19.673 6.04651 19.4419Z" fill="white"/>
<path d="M4.18336 2C3.62202 2 3.08225 2.2162 2.67612 2.60371C2.24432 3.01572 2 3.58653 2 4.18336V19.903C2 20.4512 2.21466 20.9776 2.59801 21.3694C2.99252 21.7727 3.53287 22 4.09702 22H19.88C20.4423 22 20.9815 21.7766 21.3791 21.3791C21.7766 20.9815 22 20.4423 22 19.88V4.12118C22 3.55902 21.7768 3.01985 21.3796 2.62212C20.9817 2.22381 20.4418 2 19.8788 2H4.18336ZM11.0794 3.45455C11.3556 3.44743 11.5814 3.67086 11.5814 3.94716V4.88372C11.5814 5.11491 11.7688 5.30233 12 5.30233C12.2312 5.30233 12.4186 5.11491 12.4186 4.88372V3.94716C12.4186 3.67086 12.6444 3.44743 12.9206 3.45455C13.7331 3.4755 14.5402 3.52395 15.3265 3.60052C15.6246 3.62955 15.8238 3.91809 15.7511 4.20862L15.4175 5.54026C15.3615 5.76349 15.4969 5.98985 15.72 6.04627C15.9438 6.10288 16.1711 5.96697 16.2271 5.74298L16.612 4.20506C16.6738 3.95791 16.913 3.79724 17.1644 3.83831C17.8608 3.95204 18.5271 4.0903 19.1518 4.25306C19.7137 4.39944 19.9899 5.01584 19.7612 5.54946L18.2861 8.99145C18.0943 9.43877 17.6069 9.67896 17.1278 9.59322C16.0179 9.39455 14.6514 9.27201 13.2326 9.22791C13.4233 9.48372 13.5349 9.8 13.5349 10.1395C13.5349 10.9814 12.8419 11.6744 12 11.6744C11.1581 11.6744 10.4651 10.9814 10.4651 10.1395C10.4651 9.8 10.5767 9.48372 10.7674 9.22791C9.34517 9.27201 7.98098 9.39451 6.87219 9.59313C6.39314 9.67894 5.90565 9.43877 5.71394 8.99144L4.2388 5.54946C4.01011 5.01584 4.28635 4.39944 4.84815 4.25306C5.47287 4.0903 6.13916 3.95204 6.83559 3.83831C7.08702 3.79724 7.32615 3.95791 7.388 4.20506L7.77286 5.74298C7.82891 5.96697 8.05617 6.10288 8.28002 6.04627C8.50312 5.98985 8.63845 5.76349 8.58253 5.54026L8.24894 4.20862C8.17617 3.91809 8.37541 3.62955 8.6735 3.60052C9.45982 3.52395 10.2669 3.4755 11.0794 3.45455ZM10.3188 4.7783C10.2274 4.56561 9.98117 4.46698 9.76824 4.5578C9.55469 4.64888 9.45557 4.89597 9.54697 5.10939L11.0023 8.5074C11.0813 8.69192 11.3034 8.75999 11.4926 8.69298C11.7078 8.61677 11.8653 8.37769 11.7752 8.16793L10.3188 4.7783ZM12 9.44186C11.6093 9.44186 11.3023 9.74884 11.3023 10.1395C11.3023 10.5302 11.6093 10.8372 12 10.8372C12.3907 10.8372 12.6977 10.5302 12.6977 10.1395C12.6977 9.74884 12.3907 9.44186 12 9.44186ZM6.04651 17.2093C6.04651 16.9781 6.23393 16.7907 6.46512 16.7907H17.5349C17.7661 16.7907 17.9535 16.9781 17.9535 17.2093C17.9535 17.4405 17.7661 17.6279 17.5349 17.6279H6.46512C6.23393 17.6279 6.04651 17.4405 6.04651 17.2093ZM6.04651 19.4419C6.04651 19.2107 6.23393 19.0233 6.46512 19.0233H17.5349C17.7661 19.0233 17.9535 19.2107 17.9535 19.4419C17.9535 19.673 17.7661 19.8605 17.5349 19.8605H6.46512C6.23393 19.8605 6.04651 19.673 6.04651 19.4419Z" fill="url(#paint0_linear_210_2220)"/>
<path fill-rule="evenodd" clip-rule="evenodd" d="M11.0794 3.45455C11.3556 3.44743 11.5814 3.67086 11.5814 3.94716V4.88372C11.5814 5.11491 11.7688 5.30233 12 5.30233C12.2312 5.30233 12.4186 5.11491 12.4186 4.88372V3.94716C12.4186 3.67086 12.6444 3.44743 12.9206 3.45455C13.7331 3.4755 14.5402 3.52395 15.3265 3.60052C15.6246 3.62955 15.8238 3.91809 15.7511 4.20862L15.4175 5.54026C15.3615 5.76349 15.4969 5.98985 15.72 6.04627C15.9438 6.10288 16.1711 5.96697 16.2271 5.74298L16.612 4.20506C16.6738 3.95791 16.913 3.79724 17.1644 3.83831C17.8608 3.95204 18.5271 4.0903 19.1518 4.25306C19.7137 4.39944 19.9899 5.01584 19.7612 5.54946L18.2861 8.99145C18.0943 9.43877 17.6069 9.67896 17.1278 9.59322C16.0179 9.39455 14.6514 9.27201 13.2326 9.22791C13.4233 9.48372 13.5349 9.8 13.5349 10.1395C13.5349 10.9814 12.8419 11.6744 12 11.6744C11.1581 11.6744 10.4651 10.9814 10.4651 10.1395C10.4651 9.8 10.5767 9.48372 10.7674 9.22791C9.34517 9.27201 7.98098 9.39451 6.87219 9.59313C6.39314 9.67894 5.90565 9.43877 5.71394 8.99144L4.2388 5.54946C4.01011 5.01584 4.28635 4.39944 4.84815 4.25306C5.47287 4.0903 6.13916 3.95204 6.83559 3.83831C7.08702 3.79724 7.32615 3.95791 7.388 4.20506L7.77286 5.74298C7.82891 5.96697 8.05617 6.10288 8.28002 6.04627C8.50312 5.98985 8.63845 5.76349 8.58253 5.54026L8.24894 4.20862C8.17617 3.91809 8.37541 3.62955 8.6735 3.60052C9.45982 3.52395 10.2669 3.4755 11.0794 3.45455ZM9.54697 5.10939C9.45557 4.89597 9.55469 4.64888 9.76824 4.5578C9.98117 4.46698 10.2274 4.56561 10.3188 4.7783L11.7752 8.16793C11.8653 8.37769 11.7078 8.61677 11.4926 8.69298C11.3034 8.75999 11.0813 8.69192 11.0023 8.5074L9.54697 5.10939ZM11.3023 10.1395C11.3023 9.74884 11.6093 9.44186 12 9.44186C12.3907 9.44186 12.6977 9.74884 12.6977 10.1395C12.6977 10.5302 12.3907 10.8372 12 10.8372C11.6093 10.8372 11.3023 10.5302 11.3023 10.1395Z" fill="white"/>
<path d="M6.04651 19.4419C6.04651 19.2107 6.23393 19.0233 6.46512 19.0233H17.5349C17.7661 19.0233 17.9535 19.2107 17.9535 19.4419C17.9535 19.673 17.7661 19.8605 17.5349 19.8605H6.46512C6.23393 19.8605 6.04651 19.673 6.04651 19.4419Z" fill="white"/>
<path d="M6.04651 17.2093C6.04651 16.9781 6.23393 16.7907 6.46512 16.7907H17.5349C17.7661 16.7907 17.9535 16.9781 17.9535 17.2093C17.9535 17.4405 17.7661 17.6279 17.5349 17.6279H6.46512C6.23393 17.6279 6.04651 17.4405 6.04651 17.2093Z" fill="white"/>
<defs>
<linearGradient id="paint0_linear_210_2220" x1="2" y1="2" x2="22" y2="22" gradientUnits="userSpaceOnUse">
<stop stop-color="#0094FF"/>
<stop offset="1" stop-color="#00E0FF"/>
</linearGradient>
</defs>
</svg>
